<svg width="76" height="76" viewBox="0 0 76 76" fill="none" xmlns="http://www.w3.org/2000/svg">
<path d="M54.4667 38C45.3723 38 38 45.3723 38 54.4667C38 63.561 45.3723 70.9333 54.4667 70.9333C63.561 70.9333 70.9333 63.561 70.9333 54.4667C70.9229 45.3767 63.5566 38.0104 54.4667 38ZM54.4667 68.4C46.7715 68.4 40.5333 62.1618 40.5333 54.4667C40.5333 46.7715 46.7715 40.5333 54.4667 40.5333C62.1618 40.5333 68.4 46.7715 68.4 54.4667C68.391 62.158 62.158 68.391 54.4667 68.4Z" fill="url(#paint0_linear)"/>
<path d="M62.0594 49.4001C62.0594 47.3014 60.3581 45.6001 58.2594 45.6001H56.9927V43.0668H54.4594V45.6001H53.2028L53.2231 43.0769L50.6898 43.0566L50.6695 45.6001H46.8594V48.1334H49.3927V60.8001H46.8594V63.3334H50.6695L50.6898 65.8769L53.2231 65.8566L53.2028 63.3334H54.4594V65.8668H56.9927V63.3334H58.2594C60.3581 63.3334 62.0594 61.6321 62.0594 59.5334V57.0001C62.056 56.0623 61.7039 55.1592 61.0714 54.4668C61.7039 53.7744 62.056 52.8712 62.0594 51.9334V49.4001ZM59.526 59.5334C59.526 60.233 58.9589 60.8001 58.2594 60.8001H51.926V55.7334H58.2594C58.9589 55.7334 59.526 56.3006 59.526 57.0001V59.5334ZM59.526 51.9334C59.526 52.633 58.9589 53.2001 58.2594 53.2001H51.926V48.1334H58.2594C58.9589 48.1334 59.526 48.7006 59.526 49.4001V51.9334Z" fill="url(#paint1_linear)"/>
<path d="M54.4669 32.9333C42.5744 32.9333 32.9336 42.5741 32.9336 54.4667C32.9336 66.3593 42.5744 76 54.4669 76C66.3595 76 76.0003 66.3593 76.0003 54.4667C75.987 42.5796 66.354 32.9466 54.4669 32.9333ZM54.4669 73.4667C43.9735 73.4667 35.4669 64.9601 35.4669 54.4667C35.4669 43.9733 43.9735 35.4667 54.4669 35.4667C64.9603 35.4667 73.4669 43.9733 73.4669 54.4667C73.4551 64.9552 64.9554 73.4548 54.4669 73.4667Z" fill="url(#paint2_linear)"/>
<path d="M21.5331 5.06665C12.4387 5.06665 5.06641 12.439 5.06641 21.5333C5.06641 30.6277 12.4387 38 21.5331 38C30.623 37.9895 37.9893 30.6232 37.9997 21.5333C37.9997 12.439 30.6274 5.06665 21.5331 5.06665ZM21.5331 35.4667C13.8417 35.4576 7.60876 29.2247 7.59974 21.5333C7.59974 13.8382 13.8379 7.59998 21.5331 7.59998C29.2282 7.59998 35.4664 13.8382 35.4664 21.5333C35.4664 29.2285 29.2282 35.4667 21.5331 35.4667Z" fill="url(#paint3_linear)"/>
<path d="M21.5333 0C9.64076 0 0 9.64076 0 21.5333C0 33.4259 9.64076 43.0667 21.5333 43.0667C33.4204 43.0534 43.0534 33.4204 43.0667 21.5333C43.0667 9.64076 33.4259 0 21.5333 0ZM21.5333 40.5333C11.0449 40.5215 2.54521 32.0218 2.53333 21.5333C2.53333 11.0399 11.0399 2.53333 21.5333 2.53333C32.0267 2.53333 40.5333 11.0399 40.5333 21.5333C40.5333 32.0267 32.0267 40.5333 21.5333 40.5333Z" fill="url(#paint4_linear)"/>
<path d="M21.5286 20.2666C19.469 20.2666 17.7286 19.1064 17.7286 17.7333C17.7286 16.3602 19.469 15.2 21.5286 15.2C23.5882 15.2 25.3286 16.3602 25.3286 17.7333C25.3286 18.4328 25.8958 19 26.5953 19C27.2948 19 27.862 18.4328 27.862 17.7333C27.862 15.2861 25.682 13.2404 22.7953 12.7692V10.1333H20.262V12.7692C17.3752 13.2404 15.1953 15.2861 15.1953 17.7333C15.1953 20.5276 18.0364 22.8 21.5286 22.8C23.5882 22.8 25.3286 23.9602 25.3286 25.3333C25.3286 26.7064 23.5882 27.8666 21.5286 27.8666C19.469 27.8666 17.7286 26.7064 17.7286 25.3333C17.7286 24.6338 17.1615 24.0666 16.462 24.0666C15.7625 24.0666 15.1953 24.6338 15.1953 25.3333C15.1953 27.7805 17.3752 29.8262 20.262 30.2974V32.9333H22.7953V30.2974C25.682 29.8262 27.862 27.7805 27.862 25.3333C27.862 22.539 25.0208 20.2666 21.5286 20.2666Z" fill="url(#paint5_linear)"/>
<path d="M54.4663 12.6667H48.6574L51.8684 9.4544L50.0773 7.66333L43.8086 13.9333L50.0773 20.2033L51.8684 18.4123L48.6574 15.2H54.4663C60.7594 15.207 65.8594 20.3069 65.8663 26.6V32.9333H68.3997V26.6C68.3906 18.9086 62.1577 12.6757 54.4663 12.6667Z" fill="url(#paint6_linear)"/>
<path d="M24.6494 55.7966L22.8584 57.5877L26.0694 60.8H21.5271C15.234 60.793 10.134 55.6931 10.1271 49.4V43.0667H7.59375V49.4C7.60278 57.0913 13.8357 63.3243 21.5271 63.3333H26.0694L22.8584 66.5456L24.6494 68.3367L30.9181 62.0667L24.6494 55.7966Z" fill="url(#paint7_linear)"/>
<defs>
<linearGradient id="paint0_linear" x1="38" y1="54.6986" x2="70.9333" y2="54.6986" gradientUnits="userSpaceOnUse">
<stop stop-color="#FF002E"/>
<stop offset="1" stop-color="#FF7A00"/>
</linearGradient>
<linearGradient id="paint1_linear" x1="46.8594" y1="54.6275" x2="62.0594" y2="54.6275" gradientUnits="userSpaceOnUse">
<stop stop-color="#FF002E"/>
<stop offset="1" stop-color="#FF7A00"/>
</linearGradient>
<linearGradient id="paint2_linear" x1="32.9336" y1="54.77" x2="76.0003" y2="54.77" gradientUnits="userSpaceOnUse">
<stop stop-color="#FF002E"/>
<stop offset="1" stop-color="#FF7A00"/>
</linearGradient>
<linearGradient id="paint3_linear" x1="5.06641" y1="21.7652" x2="37.9997" y2="21.7652" gradientUnits="userSpaceOnUse">
<stop stop-color="#FF002E"/>
<stop offset="1" stop-color="#FF7A00"/>
</linearGradient>
<linearGradient id="paint4_linear" x1="1.52352e-07" y1="21.8366" x2="43.0667" y2="21.8366" gradientUnits="userSpaceOnUse">
<stop stop-color="#FF002E"/>
<stop offset="1" stop-color="#FF7A00"/>
</linearGradient>
<linearGradient id="paint5_linear" x1="15.1953" y1="21.6939" x2="27.862" y2="21.6939" gradientUnits="userSpaceOnUse">
<stop stop-color="#FF002E"/>
<stop offset="1" stop-color="#FF7A00"/>
</linearGradient>
<linearGradient id="paint6_linear" x1="43.8086" y1="20.4763" x2="68.3997" y2="20.4763" gradientUnits="userSpaceOnUse">
<stop stop-color="#FF002E"/>
<stop offset="1" stop-color="#FF7A00"/>
</linearGradient>
<linearGradient id="paint7_linear" x1="7.59375" y1="55.8796" x2="30.9182" y2="55.8796" gradientUnits="userSpaceOnUse">
<stop stop-color="#FF002E"/>
<stop offset="1" stop-color="#FF7A00"/>
</linearGradient>
</defs>
</svg>
