<svg width="1683" height="1157" viewBox="0 0 1683 1157" fill="none" xmlns="http://www.w3.org/2000/svg">
<path opacity="0.8" d="M1636.16 1.68297C1632.8 -0.560989 1626.91 -0.560989 1623.54 1.68297C1621.02 3.28579 1620.18 5.85032 1621.58 8.09427L1426.67 136.641V299.168L1379.27 330.583V507.214L1216.61 614.604L1191.37 597.934L1316.73 515.228V418.418L1316.17 418.097L1173.42 323.851V290.833L1254.19 237.619C1257.55 239.222 1262.6 239.222 1265.69 236.978C1269.05 234.734 1269.05 230.887 1265.69 228.643C1262.32 226.399 1256.43 226.399 1253.07 228.643C1249.98 230.567 1249.7 233.772 1252.22 236.337L1171.45 289.551V325.133L1172.01 325.454L1314.76 419.7V513.946L1219.97 576.456V536.065L1263.44 507.535C1266.81 509.138 1271.86 509.138 1274.94 506.894C1278.31 504.65 1278.31 500.803 1274.94 498.559C1271.58 496.315 1265.69 496.315 1262.32 498.559C1259.24 500.482 1258.95 503.688 1261.48 506.253L1218.01 534.783V577.739L1189.4 596.652L1155.47 574.212V504.009L1219.41 461.694V412.968L1218.85 412.648L1084.23 323.851C1086.76 321.607 1086.48 318.401 1083.39 316.157C1080.03 313.913 1074.14 313.913 1070.77 316.157C1067.41 318.401 1067.41 322.248 1070.77 324.492C1073.86 326.416 1078.9 326.736 1082.27 325.133L1217.45 414.25V460.091L1155.47 501.124V452.718L1154.91 452.398L1072.45 397.902C1074.98 395.658 1074.7 392.452 1071.61 390.208C1068.25 387.964 1062.36 387.964 1058.99 390.208C1055.63 392.452 1055.63 396.299 1058.99 398.543C1062.08 400.466 1067.12 400.787 1070.49 399.184L1153.22 454V572.61L1129.39 556.902L1090.12 582.868L1054.5 559.466V502.406L1053.94 502.085L959.992 440.216V386.361C961.955 386.361 963.918 385.72 965.32 384.758C968.686 382.514 968.686 378.668 965.32 376.424C961.955 374.18 956.065 374.18 952.7 376.424C949.334 378.668 949.334 382.514 952.7 384.758C954.102 385.72 956.065 386.361 958.028 386.361V441.498L958.589 441.819L1052.54 503.688V558.184L899.694 457.206V350.137L982.708 295.321H1058.71H1058.99L1189.68 209.089C1193.05 210.691 1198.1 210.691 1201.18 208.448C1204.55 206.204 1204.55 202.357 1201.18 200.113C1197.82 197.869 1191.93 197.869 1188.56 200.113C1185.48 202.036 1185.2 205.562 1187.72 207.806L1058.43 293.077H986.354L1226.14 134.718C1229.51 136.32 1234.56 136.32 1237.64 134.076C1241.01 131.832 1241.01 127.986 1237.64 125.742C1234.27 123.498 1228.39 123.498 1225.02 125.742C1221.93 127.665 1221.65 131.191 1224.18 133.435L897.451 349.176V458.809L898.011 459.13L1087.88 584.471L1049.74 609.795L725.533 395.658V268.073L724.972 267.752L614.754 194.984C617.278 192.74 616.997 189.534 613.912 187.29C610.547 185.046 604.657 185.046 601.292 187.29C597.926 189.534 597.926 193.381 601.292 195.625C604.377 197.548 609.425 197.869 612.79 196.266L723.569 269.355V396.94L724.13 397.26L1048.05 611.077L1011.6 635.12L690.756 423.547H499.487L380.014 344.688V223.514C381.136 223.194 382.538 222.873 383.38 222.232C386.745 219.988 386.745 216.141 383.38 213.897C380.014 211.653 374.125 211.653 370.759 213.897C367.394 216.141 367.394 219.988 370.759 222.232C372.722 223.514 375.246 224.155 377.771 223.835V345.97L378.331 346.291L498.926 425.791H690.196L960.833 604.346H906.425L814.156 543.438H742.921H742.64L643.921 608.513C640.555 606.91 635.507 606.91 632.422 609.154C629.057 611.398 629.057 615.245 632.422 617.489C635.788 619.733 641.677 619.733 645.043 617.489C648.128 615.565 648.408 612.039 645.884 609.795L743.482 545.362H813.595L905.864 606.269H964.198L1009.35 636.081L912.314 700.195L884.55 681.922V634.158L814.436 587.997C816.96 585.753 816.68 582.547 813.595 580.303C810.23 578.059 804.34 578.059 800.975 580.303C797.609 582.547 797.609 586.394 800.975 588.638C804.06 590.561 809.108 590.882 812.473 589.279L882.586 635.44V680.64L807.705 631.594H772.368H772.088L729.739 659.483C726.374 657.88 721.326 657.88 718.241 660.124C714.875 662.368 714.875 666.215 718.241 668.459C721.606 670.703 727.496 670.703 730.861 668.459C733.946 666.535 734.227 663.009 731.703 660.765L772.649 633.838H807.144L910.071 701.797L891.28 714.299L951.017 753.729L922.972 772.322H880.623L850.334 752.447C852.858 750.203 852.297 746.997 849.212 745.074C845.847 742.83 839.958 742.83 836.592 745.074C833.227 747.318 833.227 751.164 836.592 753.408C839.677 755.652 844.725 755.652 848.091 754.049L879.782 774.886H919.045L847.81 822.009L680.099 711.414H559.504H559.224L491.354 756.293C487.989 754.691 482.941 754.691 479.856 756.935C476.49 759.179 476.49 763.025 479.856 765.269C483.221 767.513 489.111 767.513 492.476 765.269C495.561 763.346 495.841 759.82 493.317 757.576L560.065 713.658H679.819L809.108 798.929H753.858L699.731 763.346C702.255 761.102 701.975 757.896 698.89 755.652C695.524 753.408 689.635 753.408 686.269 755.652C682.904 757.896 682.904 761.743 686.269 763.987C689.354 765.91 694.402 766.231 697.768 764.628L753.298 801.173H812.754L846.128 823.292L760.87 879.391H488.55L277.649 739.304C280.173 737.06 279.892 733.854 276.807 731.61C273.442 729.366 267.552 729.366 264.187 731.61C260.822 733.854 260.822 737.701 264.187 739.945C267.272 741.868 272.32 742.189 275.686 740.586L488.55 880.993H757.785L724.13 903.433H522.484H522.204L422.924 969.149C419.558 967.546 414.51 967.546 411.425 969.79C408.06 972.034 408.06 975.881 411.425 978.125C414.79 980.369 420.68 980.369 424.045 978.125C427.13 976.201 427.411 972.675 424.887 970.431L523.045 905.677H724.691H724.972L953.261 755.011L978.501 771.681L738.433 930.04H562.87H562.589L350.567 1070.13H56.6516L0 1032.62V1035.19L56.3711 1072.37H351.128H351.408L484.623 984.536V1036.47L396.841 1094.49C393.476 1092.89 388.428 1092.89 385.343 1095.13C381.977 1097.37 381.977 1101.22 385.343 1103.47C388.708 1105.71 394.598 1105.71 397.963 1103.47C401.048 1101.54 401.329 1098.02 398.805 1095.77L486.586 1037.75V983.574H486.026L563.431 932.604H738.994H739.275L980.465 773.283L1009.35 792.197L540.994 1101.22V1157H542.958V1102.5L1011.31 793.479L1046.93 816.88L805.462 976.201V1004.73L762.552 1032.94V1098.34L679.538 1153.15C676.173 1151.55 671.125 1151.55 668.04 1153.79C666.637 1154.76 666.077 1155.72 665.516 1156.68H682.904C682.623 1156.04 682.062 1155.08 681.501 1154.44L764.516 1099.62V1034.22L805.462 1007.3V1112.12L829.581 1128.15L786.11 1156.68H790.037L831.544 1129.43L873.051 1156.68H876.977L807.425 1110.84V977.483L1048.9 818.163L1081.43 839.64L910.351 952.159C906.986 950.556 901.938 950.556 898.853 952.8C895.487 955.044 895.487 958.891 898.853 961.135C902.218 963.379 908.108 963.379 911.473 961.135C914.558 959.211 914.839 956.006 912.314 953.441L1083.11 840.602L1114.52 861.118L910.071 996.076H854.541C854.261 995.115 853.419 993.832 852.017 993.191C848.652 990.947 842.762 990.947 839.397 993.191C836.031 995.435 836.031 999.282 839.397 1001.53C842.762 1003.77 848.652 1003.77 852.017 1001.53C853.419 1000.56 854.261 999.602 854.541 998.641H910.632H910.912L1116.48 863.042L1129.1 871.376L1138.92 864.965L1188 897.342V942.221L1147.61 968.828H1084.23H1083.95L1014.4 1014.67C1011.03 1013.07 1005.99 1013.07 1002.9 1015.31C999.536 1017.55 999.536 1021.4 1002.9 1023.64C1006.27 1025.89 1012.16 1025.89 1015.52 1023.64C1018.61 1021.72 1018.89 1018.2 1016.36 1015.95L1084.79 970.752H1144.25L1025.34 1049.29C1021.97 1047.37 1016.92 1047.69 1013.56 1049.61C1010.19 1051.85 1010.19 1055.7 1013.56 1057.95C1016.92 1060.19 1022.81 1060.19 1026.18 1057.95C1029.26 1056.02 1029.54 1052.82 1027.3 1050.57L1175.66 952.479V974.278L1087.32 1032.62V1073.65L1015.52 1121.1C1012.16 1119.49 1007.11 1119.49 1004.02 1121.74C1000.66 1123.98 1000.66 1127.83 1004.02 1130.07C1007.39 1132.32 1013.28 1132.32 1016.64 1130.07C1019.73 1128.15 1020.01 1124.62 1017.48 1122.38L1089.28 1074.94V1033.9L1177.62 975.56V951.197L1189.96 943.183V895.419L1140.88 863.042L1173.14 841.884L1273.82 908.562V984.215L1205.39 1029.42C1202.02 1027.49 1196.97 1027.81 1193.61 1029.74C1190.24 1031.98 1190.24 1035.83 1193.61 1038.07C1196.97 1040.31 1202.86 1040.31 1206.23 1038.07C1209.31 1036.15 1209.59 1032.94 1207.35 1030.7L1273.82 986.78V1048.01L1221.37 1082.63V1156.68H1223.34V1083.91L1273.82 1050.57V1156.68H1275.78V907.28L1175.1 840.602L1211.28 816.88L1343.09 903.753V1110.84L1406.47 1152.51V1156.68H1408.44V1151.23L1345.05 1109.56V902.471L1213.24 815.598L1240.16 797.967L1417.97 915.294V1091.93L1516.41 1156.68H1520.34L1419.93 1090.64V914.012L1242.13 796.685L1285.6 768.154L1581.48 963.379V1051.21L1683 1118.21V1115.65L1583.72 1049.93V962.096L1417.41 852.142H1548.94L1683 940.618V938.054L1548.94 849.578H1413.48L1287.56 766.552L1338.04 733.213L1446.3 804.699H1620.18L1682.72 846.052V843.487L1668.98 834.511H1682.72V832.267H1665.61L1620.74 802.775H1446.86L1416.57 782.9H1490.61H1490.89L1527.91 758.537H1682.44L1683 758.858V756.293H1531.56L1573.34 728.725C1576.71 730.328 1581.76 730.328 1584.84 728.084C1588.21 725.84 1588.21 721.993 1584.84 719.749C1581.48 717.505 1575.59 717.505 1572.22 719.749C1569.14 721.672 1568.86 725.199 1571.38 727.443L1490.33 780.977H1413.48L1340.29 732.892L1367.21 714.941L1349.82 703.4H1400.3L1466.21 746.997C1463.69 749.241 1463.97 752.447 1467.05 754.691C1470.42 756.935 1476.31 756.935 1479.67 754.691C1483.04 752.447 1483.04 748.6 1479.67 746.356C1476.59 744.433 1471.54 744.112 1468.17 745.715L1400.58 701.156H1346.18L1309.16 676.793L1331.87 661.727H1372.26L1407.59 638.326H1433.96L1493.69 677.755C1490.89 679.999 1491.17 683.205 1494.54 685.449C1497.9 687.693 1503.79 687.693 1507.16 685.449C1510.52 683.205 1510.52 679.358 1507.16 677.114C1504.07 675.19 1499.3 674.87 1495.94 676.473L1434.8 636.081H1407.31L1371.98 659.483H1335.52L1408.16 611.398H1447.42L1529.31 665.253H1683V663.009H1529.87L1447.98 609.154H1407.59H1407.31L1307.19 675.19L1280.83 657.88L1393.85 583.188H1473.5L1539.41 626.465H1682.72V624.221H1539.97L1477.71 583.188H1682.72V580.303H1393.57H1393.29L1278.87 655.957L1249.14 636.402L1406.75 532.218H1682.72V529.974H1481.63L1682.72 397.26V394.696L1477.71 529.974H1408.16L1557.64 431.24V409.442L1629.15 362.319C1632.52 363.922 1637.57 363.922 1640.65 361.678C1644.02 359.434 1644.02 355.587 1640.65 353.343C1637.29 351.099 1631.4 351.099 1628.03 353.343C1624.95 355.266 1624.67 358.472 1627.19 361.037L1588.21 386.682V327.057L1682.72 264.867V262.303L1586.24 325.774V387.964L1555.67 408.16V429.958L1405.07 529.333L1405.63 530.295L1247.18 634.799L1218.29 615.886L1380.95 508.497V331.865L1682.72 132.794V130.23L1428.63 297.885V138.244L1623.26 10.0177L1623.54 10.3382C1626.91 12.5822 1632.8 12.5822 1636.16 10.3382C1639.53 7.77371 1639.53 4.24749 1636.16 1.68297ZM1363 713.979L1129.39 868.171L895.768 713.979L1129.39 559.787L1363 713.979Z" fill="#DADADA"/>
</svg>
