<svg width="615" height="423" viewBox="0 0 615 423" fill="none" xmlns="http://www.w3.org/2000/svg">
<path opacity="0.8" d="M597.885 0.615294C596.656 -0.205098 594.503 -0.205098 593.274 0.615294C592.351 1.20129 592.044 2.13888 592.556 2.95927L521.331 49.956V109.376L504.011 120.861V185.438L444.571 224.7L435.347 218.605L481.157 188.368V152.974L480.952 152.857L428.789 118.4V106.329L458.304 86.8737C459.533 87.4597 461.378 87.4597 462.505 86.6393C463.735 85.8189 463.735 84.4125 462.505 83.5921C461.276 82.7717 459.124 82.7717 457.894 83.5921C456.766 84.2953 456.664 85.4673 457.586 86.4049L428.071 105.86V118.869L428.276 118.986L480.44 153.443V187.899L445.801 210.753V195.986L461.686 185.555C462.915 186.141 464.76 186.141 465.887 185.321C467.117 184.5 467.117 183.094 465.887 182.274C464.658 181.453 462.505 181.453 461.276 182.274C460.148 182.977 460.046 184.149 460.968 185.086L445.083 195.517V211.222L434.63 218.136L422.23 209.932V184.266L445.596 168.796V150.981L445.391 150.864L396.199 118.4C397.121 117.58 397.019 116.408 395.892 115.587C394.662 114.767 392.51 114.767 391.28 115.587C390.05 116.408 390.05 117.814 391.28 118.635C392.407 119.338 394.252 119.455 395.482 118.869L444.878 151.45V168.21L422.23 183.211V165.514L422.025 165.397L391.895 145.473C392.817 144.653 392.715 143.481 391.587 142.66C390.357 141.84 388.205 141.84 386.976 142.66C385.746 143.481 385.746 144.887 386.976 145.708C388.103 146.411 389.948 146.528 391.177 145.942L421.41 165.983V209.346L412.699 203.604L398.351 213.097L385.336 204.541V183.68L385.131 183.563L350.799 160.943V141.254C351.516 141.254 352.234 141.02 352.746 140.668C353.976 139.848 353.976 138.441 352.746 137.621C351.516 136.8 349.364 136.8 348.135 137.621C346.905 138.441 346.905 139.848 348.135 140.668C348.647 141.02 349.364 141.254 350.082 141.254V161.412L350.287 161.529L384.618 184.149V204.073L328.765 167.155V128.01L359.1 107.969H386.873H386.976L434.733 76.443C435.962 77.029 437.807 77.029 438.934 76.2086C440.164 75.3882 440.164 73.9818 438.934 73.1614C437.705 72.341 435.552 72.341 434.323 73.1614C433.195 73.8646 433.093 75.1538 434.015 75.9742L386.771 107.149H360.432L448.055 49.2528C449.285 49.8388 451.13 49.8388 452.257 49.0184C453.487 48.198 453.487 46.7917 452.257 45.9713C451.027 45.1509 448.875 45.1509 447.645 45.9713C446.518 46.6745 446.416 47.9636 447.338 48.784L327.945 127.659V167.741L328.15 167.858L397.531 213.683L383.594 222.942L265.123 144.653V98.0076L264.918 97.8904L224.643 71.2862C225.565 70.4658 225.462 69.2938 224.335 68.4734C223.105 67.6531 220.953 67.6531 219.723 68.4734C218.494 69.2938 218.494 70.7002 219.723 71.5206C220.851 72.2238 222.695 72.341 223.925 71.755L264.406 98.4764V145.122L264.611 145.239L382.979 223.41L369.656 232.2L252.415 154.849H182.522L138.864 126.018V81.7169C139.274 81.5997 139.787 81.4825 140.094 81.2481C141.324 80.4277 141.324 79.0213 140.094 78.2009C138.864 77.3806 136.712 77.3806 135.482 78.2009C134.253 79.0213 134.253 80.4277 135.482 81.2481C136.2 81.7169 137.122 81.9513 138.044 81.8341V126.487L138.249 126.604L182.317 155.669H252.21L351.107 220.949H331.225L297.508 198.681H271.477H271.375L235.301 222.473C234.071 221.887 232.226 221.887 231.099 222.707C229.869 223.528 229.869 224.934 231.099 225.754C232.329 226.575 234.481 226.575 235.711 225.754C236.838 225.051 236.941 223.762 236.018 222.942L271.682 199.385H297.303L331.02 221.652H352.336L368.836 232.552L333.377 255.992L323.231 249.311V231.849L297.61 214.972C298.533 214.152 298.43 212.98 297.303 212.159C296.073 211.339 293.921 211.339 292.691 212.159C291.461 212.98 291.461 214.386 292.691 215.206C293.819 215.91 295.663 216.027 296.893 215.441L322.514 232.317V248.842L295.151 230.911H282.238H282.135L266.661 241.107C265.431 240.521 263.586 240.521 262.459 241.342C261.229 242.162 261.229 243.569 262.459 244.389C263.689 245.209 265.841 245.209 267.071 244.389C268.198 243.686 268.3 242.397 267.378 241.576L282.34 231.731H294.946L332.557 256.578L325.691 261.148L347.52 275.564L337.271 282.361H321.796L310.728 275.095C311.651 274.275 311.446 273.103 310.318 272.399C309.089 271.579 306.936 271.579 305.707 272.399C304.477 273.22 304.477 274.626 305.707 275.447C306.834 276.267 308.679 276.267 309.908 275.681L321.489 283.299H335.837L309.806 300.527L248.521 260.094H204.453H204.351L179.55 276.501C178.32 275.915 176.476 275.915 175.348 276.736C174.118 277.556 174.118 278.963 175.348 279.783C176.578 280.603 178.73 280.603 179.96 279.783C181.087 279.08 181.19 277.791 180.267 276.97L204.658 260.914H248.419L295.663 292.089H275.474L255.695 279.08C256.617 278.259 256.515 277.087 255.387 276.267C254.158 275.447 252.006 275.447 250.776 276.267C249.546 277.087 249.546 278.494 250.776 279.314C251.903 280.017 253.748 280.135 254.978 279.549L275.269 292.909H296.996L309.191 300.996L278.036 321.506H178.525L101.458 270.29C102.38 269.47 102.278 268.298 101.151 267.477C99.9209 266.657 97.7687 266.657 96.5389 267.477C95.3091 268.298 95.3091 269.704 96.5389 270.524C97.6662 271.227 99.5109 271.345 100.741 270.759L178.525 322.092H276.909L264.611 330.296H190.926H190.823L154.544 354.321C153.314 353.735 151.47 353.736 150.342 354.556C149.113 355.376 149.113 356.783 150.342 357.603C151.572 358.423 153.724 358.423 154.954 357.603C156.081 356.9 156.184 355.611 155.262 354.79L191.131 331.116H264.816H264.918L348.339 276.033L357.563 282.127L269.838 340.023H205.683H205.581L128.104 391.239H20.7016L0 377.527V378.464L20.5991 392.06H128.309H128.411L177.09 359.947V378.933L145.013 400.146C143.784 399.56 141.939 399.56 140.812 400.381C139.582 401.201 139.582 402.607 140.812 403.428C142.041 404.248 144.193 404.248 145.423 403.428C146.551 402.725 146.653 401.435 145.731 400.615L177.808 379.402V359.595H177.603L205.888 340.961H270.043H270.145L358.28 282.713L368.836 289.628L197.69 402.607V423H198.407V403.076L369.553 290.096L382.569 298.652L294.331 356.9V367.331L278.651 377.644V401.553L248.316 421.594C247.086 421.008 245.242 421.008 244.114 421.828C243.602 422.18 243.397 422.531 243.192 422.883H249.546C249.443 422.648 249.238 422.297 249.034 422.062L279.368 402.021V378.113L294.331 368.268V406.592L303.144 412.452L287.26 422.883H288.694L303.862 412.921L319.029 422.883H320.464L295.048 406.123V357.369L383.286 299.121L395.174 306.973L332.66 348.11C331.43 347.524 329.585 347.524 328.458 348.344C327.228 349.165 327.228 350.571 328.458 351.392C329.688 352.212 331.84 352.212 333.07 351.392C334.197 350.688 334.299 349.516 333.377 348.579L395.789 307.325L407.267 314.825L332.557 364.166H312.266C312.163 363.815 311.856 363.346 311.343 363.111C310.113 362.291 307.961 362.291 306.731 363.111C305.502 363.932 305.502 365.338 306.731 366.159C307.961 366.979 310.113 366.979 311.343 366.159C311.856 365.807 312.163 365.455 312.266 365.104H332.762H332.865L407.985 315.529L412.596 318.576L416.183 316.232L434.118 328.069V344.477L419.36 354.204H396.199H396.097L370.681 370.964C369.451 370.378 367.606 370.378 366.479 371.198C365.249 372.019 365.249 373.425 366.479 374.245C367.709 375.066 369.861 375.066 371.091 374.245C372.218 373.542 372.32 372.253 371.398 371.433L396.404 354.907H418.13L374.678 383.621C373.448 382.918 371.603 383.035 370.373 383.738C369.143 384.559 369.143 385.965 370.373 386.786C371.603 387.606 373.755 387.606 374.985 386.786C376.112 386.082 376.215 384.91 375.395 384.09L429.608 348.227V356.197L397.326 377.527V392.528L371.091 409.874C369.861 409.288 368.016 409.288 366.889 410.108C365.659 410.929 365.659 412.335 366.889 413.155C368.119 413.976 370.271 413.976 371.501 413.155C372.628 412.452 372.73 411.163 371.808 410.343L398.044 392.997V377.996L430.326 356.665V347.758L434.835 344.828V327.366L416.901 315.529L428.686 307.794L465.477 332.171V359.83L440.472 376.355C439.242 375.652 437.397 375.769 436.167 376.472C434.938 377.292 434.938 378.699 436.167 379.519C437.397 380.34 439.549 380.34 440.779 379.519C441.906 378.816 442.009 377.644 441.189 376.824L465.477 360.767V383.152L446.313 395.81V422.883H447.031V396.279L465.477 384.09V422.883H466.195V331.702L429.403 307.325L442.624 298.652L490.791 330.413V406.123L513.952 421.359V422.883H514.669V420.89L491.508 405.655V329.944L443.341 298.183L453.18 291.737L518.154 334.632V399.209L554.125 422.883H555.56L518.871 398.74V334.163L453.897 291.268L469.782 280.838L577.901 352.212V384.324L615 408.819V407.881L578.721 383.856V351.743L517.949 311.544H566.013L615 343.891V342.953L566.013 310.606H516.514L470.499 280.252L488.946 268.063L528.504 294.198H592.044L614.898 309.317V308.38L609.876 305.098H614.898V304.278H608.646L592.249 293.495H528.709L517.641 286.229H544.697H544.799L558.327 277.322H614.795L615 277.439V276.501H559.659L574.929 266.422C576.159 267.008 578.004 267.008 579.131 266.188C580.361 265.368 580.361 263.961 579.131 263.141C577.901 262.32 575.749 262.32 574.519 263.141C573.392 263.844 573.289 265.133 574.212 265.954L544.594 285.526H516.514L489.766 267.946L499.604 261.383L493.25 257.164H511.697L535.781 273.103C534.858 273.923 534.961 275.095 536.088 275.915C537.318 276.736 539.47 276.736 540.7 275.915C541.93 275.095 541.93 273.689 540.7 272.868C539.573 272.165 537.728 272.048 536.498 272.634L511.8 256.343H491.918L478.39 247.436L486.691 241.928H501.449L514.362 233.372H523.995L545.824 247.788C544.799 248.608 544.902 249.78 546.132 250.6C547.361 251.421 549.513 251.421 550.743 250.6C551.973 249.78 551.973 248.374 550.743 247.553C549.616 246.85 547.874 246.733 546.644 247.319L524.303 232.552H514.259L501.346 241.107H488.024L514.567 223.528H528.914L558.839 243.217H615V242.397H559.044L529.119 222.707H514.362H514.259L477.673 246.85L468.04 240.521L509.34 213.214H538.445L562.529 229.036H614.898V228.215H562.734L539.983 213.214H614.898V212.159H509.238H509.135L467.322 239.818L456.459 232.669L514.054 194.579H614.898V193.759H541.417L614.898 145.239V144.301L539.983 193.759H514.567L569.19 157.662V149.692L595.323 132.464C596.553 133.05 598.398 133.05 599.525 132.23C600.755 131.409 600.755 130.003 599.525 129.182C598.295 128.362 596.143 128.362 594.913 129.182C593.786 129.886 593.684 131.058 594.606 131.995L580.361 141.371V119.572L614.898 96.8356V95.898L579.643 119.103V141.84L568.473 149.223V157.193L513.439 193.525L513.644 193.876L455.742 232.083L445.186 225.168L504.626 185.907V121.33L614.898 48.5496V47.612L522.048 108.907V50.542L593.171 3.66246L593.274 3.77966C594.503 4.60006 596.656 4.60006 597.885 3.77966C599.115 2.84207 599.115 1.55289 597.885 0.615294ZM498.067 261.031L412.699 317.404L327.33 261.031L412.699 204.659L498.067 261.031Z" fill="url(#paint0_radial)"/>
<defs>
<radialGradient id="paint0_radial" cx="0" cy="0" r="1" gradientUnits="userSpaceOnUse" gradientTransform="translate(628.221 63.7921) rotate(180) scale(450.25 514.904)">
<stop stop-color="#FF2C9C"/>
<stop offset="0.0300632" stop-color="#F62F9F"/>
<stop offset="0.2023" stop-color="#C63EB0"/>
<stop offset="0.3737" stop-color="#9E4BBE"/>
<stop offset="0.5413" stop-color="#7F54C9"/>
<stop offset="0.7039" stop-color="#695BD1"/>
<stop offset="0.8594" stop-color="#5C60D5"/>
<stop offset="1" stop-color="#5761D7"/>
</radialGradient>
</defs>
</svg>
