<svg width="428" height="349" viewBox="0 0 428 349" fill="none" xmlns="http://www.w3.org/2000/svg">
<path opacity="0.5792" d="M109.765 0V36.2463L109.651 36.3603L106.688 38.07L59.4992 65.5397L56.9916 67.0215L56.6497 67.1354L56.4217 67.3634L56.1938 67.1354L55.8518 67.0215L53.3442 65.5397L6.15564 38.07L3.64804 36.5882L3.42007 36.4743L3.07812 36.2463V10H3.64804V35.9044L6.49759 37.5001L53.6862 65.0838L56.1938 66.4515L56.4217 66.6795L56.6497 66.4515L59.1573 65.0838L106.346 37.5001L109.195 35.9044V0H109.765Z" fill="url(#paint0_linear)"/>
<path opacity="0.9861" d="M3.41415 36.4742L3.07221 36.3603V98.4805L3.64212 98.0246V36.5882L3.41415 36.4742ZM3.07221 35.5624L0.564602 34.1946C0.45062 34.3086 0.336638 34.5365 0.222656 34.6505L2.73026 36.1323L3.07221 36.2463V98.3665L3.64212 98.0246V35.9043L3.07221 35.5624Z" fill="url(#paint1_linear)"/>
<path opacity="0.9699" d="M109.765 0V36.2463L109.651 36.3603L106.688 38.07L59.4992 65.5397L56.9916 67.0215L56.6497 67.1354L56.4217 67.3634L56.1938 67.1354L55.8518 67.0215L53.3442 65.5397L6.15564 38.07L3.64804 36.5882L3.42007 36.4743L3.07812 36.2463V10H3.64804V35.9044L6.49759 37.5001L53.6862 65.0838L56.1938 66.4515L56.4217 66.6795L56.6497 66.4515L59.1573 65.0838L106.346 37.5001L109.195 35.9044V0H109.765Z" fill="url(#paint2_linear)"/>
<path opacity="0.9051" d="M3.07812 282.789V283.473L3.64804 283.815V283.131L3.07812 282.789Z" fill="url(#paint3_linear)"/>
<path opacity="0.9574" d="M65.8781 0L59.4951 3.76141L56.7595 5.35716L56.5315 5.47114L56.1896 5.35716L53.454 3.76141L46.957 0H48.0969L53.682 3.1915L56.4175 4.78725L59.1531 3.1915L64.7382 0H65.8781Z" fill="url(#paint4_linear)"/>
<path opacity="0.9474" d="M56.1945 67.1354L55.8525 67.0214L53.3449 68.3892L3.64874 97.3407V98.0246L53.5729 68.9591L56.0805 67.4774L56.4224 67.3634L56.1945 67.1354ZM136.552 113.298L135.982 112.956L109.994 97.9106L109.766 97.7966L109.424 97.5686L59.5 68.3892L56.9924 67.0214L56.6504 66.9075L56.5364 66.7935L56.4224 66.6795L56.0805 66.9075L55.8525 67.0214L53.3449 68.3892L3.64874 97.3407L3.07883 97.6826V98.3665L3.64874 98.0246L53.5729 68.9591L56.0805 67.4774L56.4224 67.3634L56.6504 67.4774L59.158 68.9591L108.854 97.9106L109.196 98.0246L109.538 98.2525L109.88 98.3665L135.64 113.526L136.21 113.868L162.198 129.028V252.242L109.766 282.79L109.424 282.903L109.082 283.131L108.854 283.245L82.8663 298.405L82.2964 298.747L56.3085 313.907L30.3205 298.747L29.7506 298.405L3.53475 283.131L2.96484 282.79V283.473L3.53475 283.815L29.6367 298.861L30.2066 299.203L56.3085 314.363L56.4224 314.477L82.6383 299.203L83.2082 298.861L109.424 283.587L109.652 283.473L109.88 283.359L162.54 252.698L162.654 252.584V128.572L136.552 113.298Z" fill="url(#paint5_linear)"/>
<path opacity="0.8086" d="M186.245 111.36L162.536 97.5686L135.979 113.07L135.637 113.184V144.415L162.195 159.803L162.536 160.031L162.878 159.803L186.359 146.125L189.436 144.301V113.184L186.245 111.36ZM188.752 144.073L186.017 145.669L162.878 159.119L162.536 159.347L162.195 159.119L136.207 143.959V113.526L136.435 113.412L162.423 98.2525L185.903 111.93L188.638 113.526V144.073H188.752Z" fill="url(#paint6_linear)"/>
<path opacity="0.5531" d="M82.9803 298.405L56.4225 283.017L29.8647 298.405L29.6367 298.519V329.75L56.4225 345.366L83.2083 329.75V298.519L82.9803 298.405ZM82.6384 329.408L56.4225 344.682L30.2066 329.408V298.861L30.5486 298.747L56.5365 283.587L82.5244 298.747L82.7524 298.861V329.408H82.6384Z" fill="url(#paint7_linear)"/>
<path opacity="0.9538" d="M171.996 0L162.535 5.47114L152.961 0H154.101L162.535 4.90123L170.856 0H171.996Z" fill="url(#paint8_linear)"/>
<path opacity="0.8754" d="M321.886 0V36.2463L321.658 36.4743L318.809 38.07L295.329 51.7479L294.759 51.9758L268.885 67.1354L268.543 67.3634L268.315 67.1354L242.327 51.9758L241.757 51.7479L215.199 36.2463V0H215.769V35.9044L242.099 51.178L242.555 51.5199L268.315 66.4515L268.543 66.6795L268.885 66.4515L294.531 51.5199L295.101 51.178L318.581 37.5001L321.317 35.9044V0H321.886Z" fill="url(#paint9_linear)"/>
<path opacity="0.5051" d="M109.765 0V36.2463L109.651 36.3603L106.688 38.07L59.4992 65.5397L56.9916 67.0215L56.6497 67.1354L56.4217 67.3634L56.1938 67.1354L55.8518 67.0215L53.3442 65.5397L6.15564 38.07L3.64804 36.5882L3.42007 36.4743L3.07812 36.2463V30H3.64804V35.9044L6.49759 37.5001L53.6862 65.0838L56.1938 66.4515L56.4217 66.6795L56.6497 66.4515L59.1573 65.0838L106.346 37.5001L109.195 35.9044V0H109.765Z" fill="url(#paint10_linear)"/>
<path opacity="0.8517" d="M268.886 5.01521V128.914L268.658 129.028L268.316 129.256L258.4 135.069L255.892 136.551L255.322 136.778L252.472 138.488L218.62 158.207L215.77 159.803L215.656 159.917L212.807 161.627L165.504 189.096L162.997 190.578L162.769 190.692L162.541 190.92L162.199 190.692L161.971 190.578L159.463 189.096L147.153 181.915L112.274 161.627L109.425 160.031L109.197 159.803L108.855 159.689L106.347 158.207L59.1588 130.737L56.6512 129.256L56.1953 128.914V5.01521L56.3093 4.90123H56.4233L59.1588 3.1915L64.744 0H65.8838L59.5008 3.76141L56.6512 5.35716V128.572L56.9932 128.8L59.5008 130.282L106.689 157.751L109.197 159.233L109.767 159.575L112.502 161.171L154.904 185.791L159.691 188.64L162.199 190.122L162.541 190.236L162.769 190.122L165.276 188.64L171.887 184.765L212.465 161.171L215.2 159.461L215.77 159.233L218.278 157.751L252.244 137.918L254.98 136.323L255.55 135.981L258.058 134.499L267.974 128.8L268.316 128.572V5.35716L259.083 0H260.223L268.544 4.90123L268.886 5.01521Z" fill="url(#paint11_linear)"/>
<path opacity="0.61" d="M279.027 119.111L271.618 114.78L268.882 113.184L268.54 113.07L268.198 113.184L265.463 114.78L255.205 120.707L254.977 120.821V136.551L255.319 136.778L258.054 138.374L268.198 144.301L268.54 144.415L268.882 144.301L282.104 136.551V120.821L279.027 119.111ZM281.534 136.323L268.882 143.731L268.54 143.959L268.198 143.731L258.282 137.918L255.774 136.437L255.433 136.323V121.163L255.66 121.049L265.577 115.236L268.085 113.754L268.426 113.526L268.768 113.754L271.276 115.236L278.685 119.567L281.42 121.163V136.323H281.534Z" fill="url(#paint12_linear)"/>
<path opacity="0.6181" d="M56.1938 67.1355L55.8518 67.0215L53.3442 68.3893L3.64804 97.3407V98.0246L53.5722 68.9592L56.0798 67.4774L56.4217 67.3634L56.1938 67.1355ZM109.195 159.803V159.461L108.854 159.575L106.346 161.057L59.1573 188.526L56.6497 190.008L56.4217 190.122L56.6497 190.236L56.9916 190.464L59.4993 188.982L106.688 161.513L109.423 159.917L109.195 159.803ZM56.1938 67.1355L55.8518 67.0215L53.3442 68.3893L3.64804 97.3407V98.0246L53.5722 68.9592L56.0798 67.4774L56.4217 67.3634L56.1938 67.1355ZM109.195 159.803V159.461L108.854 159.575L106.346 161.057L59.1573 188.526L56.6497 190.008L56.4217 190.122L56.6497 190.236L56.9916 190.464L59.4993 188.982L106.688 161.513L109.423 159.917L109.195 159.803ZM56.1938 67.1355L55.8518 67.0215L53.3442 68.3893L3.64804 97.3407V98.0246L53.5722 68.9592L56.0798 67.4774L56.4217 67.3634L56.1938 67.1355ZM109.423 97.5687L59.4993 68.3893L56.9916 67.0215L56.6497 66.9075L56.5357 66.7935L56.4217 66.6795L56.0798 66.9075L55.8518 67.0215L53.3442 68.3893L3.64804 97.3407L3.07812 97.6827V159.803L53.3442 189.096L55.8518 190.578L56.0798 190.692L56.4217 190.92L56.6497 190.806L56.9916 190.692L59.4993 189.21L106.688 161.741L109.423 160.145L109.537 160.031L109.651 159.917V97.6827L109.423 97.5687ZM109.195 159.461L108.854 159.575L106.346 161.057L59.1573 188.526L56.6497 190.008L56.4217 190.122L56.0798 190.008L53.5722 188.526L3.64804 159.461V98.0246L53.5722 68.9592L56.0798 67.4774L56.4217 67.3634L56.6497 67.4774L59.1573 68.9592L108.854 97.9106L109.195 98.0246V159.461ZM56.1938 67.1355L55.8518 67.0215L53.3442 68.3893L3.64804 97.3407V98.0246L53.5722 68.9592L56.0798 67.4774L56.4217 67.3634L56.1938 67.1355ZM109.195 159.803V159.461L108.854 159.575L106.346 161.057L59.1573 188.526L56.6497 190.008L56.4217 190.122L56.6497 190.236L56.9916 190.464L59.4993 188.982L106.688 161.513L109.423 159.917L109.195 159.803ZM56.1938 67.1355L55.8518 67.0215L53.3442 68.3893L3.64804 97.3407V98.0246L53.5722 68.9592L56.0798 67.4774L56.4217 67.3634L56.1938 67.1355ZM109.195 159.233V159.575L108.854 159.689L106.346 161.171L59.1573 188.64L56.6497 190.122L56.4217 190.236L56.6497 190.35L56.9916 190.578L59.4993 189.096L106.688 161.627L109.423 160.031L109.537 159.917L109.651 159.803V159.575L109.195 159.233Z" fill="url(#paint13_linear)"/>
<path opacity="0.876" d="M268.313 128.23L255.889 121.049L255.319 120.707L215.881 97.6827L162.651 66.6796L162.537 66.5656L109.422 97.5687L109.194 97.6827L108.852 97.9107L59.1556 126.862L56.648 128.344L56.1921 128.572L56.0781 128.686V252.584L108.852 283.36L109.08 283.473L109.422 283.587L135.638 298.861L136.208 299.203L159.346 312.653L162.309 314.363L162.423 314.477L165.501 312.653L188.639 299.203L189.209 298.861L215.539 283.473L215.653 283.36L268.541 252.584L268.655 252.47V128.572L268.313 128.23ZM268.313 252.242L215.881 282.79L215.311 283.132L189.095 298.405L188.525 298.747L165.273 312.197L162.537 313.793L159.802 312.197L136.663 298.747L136.094 298.405L110.106 283.246L109.878 283.132L109.536 282.904L109.194 282.79L56.762 252.242V128.914L56.99 128.8L59.4976 127.318L109.194 98.3666L109.536 98.2526L109.878 98.0246L110.106 97.9107L162.537 67.3635L215.311 98.1386L215.881 98.4806L255.091 121.277L255.661 121.619L268.085 128.8L268.427 128.914V252.242H268.313Z" fill="url(#paint14_linear)"/>
<path opacity="0.5845" d="M188.98 298.405L162.423 283.017L135.865 298.405L135.637 298.519V329.75L159.345 343.542L162.423 345.366L165.5 343.542L189.208 329.75V298.519L188.98 298.405ZM188.752 329.408L165.272 343.086L162.536 344.682L159.801 343.086L136.321 329.408V298.861L136.663 298.747L162.65 283.587L188.638 298.747L188.98 298.861V329.408H188.752Z" fill="url(#paint15_linear)"/>
<path opacity="0.5432" d="M106.688 219.53L59.4992 192.06L56.9916 190.578L56.6497 190.692L56.4217 190.806L56.6497 190.92L59.1573 192.402L106.46 219.985L109.195 221.581V221.239L109.423 221.125L106.688 219.53ZM109.423 221.125L106.688 219.53L59.4992 192.06C59.3853 192.288 59.3853 192.402 59.2713 192.516L106.46 219.985L109.195 221.581V283.018L109.537 282.79L109.879 282.676V221.239L109.423 221.125ZM109.423 221.125L106.688 219.53L59.4992 192.06C59.3853 192.288 59.3853 192.402 59.2713 192.516L106.46 219.985L109.195 221.581V283.018L109.537 282.79L109.879 282.676V221.239L109.423 221.125ZM109.423 221.125L106.688 219.53L59.4992 192.06L56.9916 190.578L56.6497 190.35L56.4217 190.236L56.0798 190.464L55.8518 190.578L53.3442 192.06L3.07812 221.239V283.36L3.64804 283.701L29.6359 298.861L30.2059 299.203L56.3078 314.363L56.4217 314.477L82.6376 299.203L83.2075 298.861L109.423 283.587L109.651 283.473V221.353L109.423 221.125ZM82.4097 298.747L56.4217 313.907L30.4338 298.747L29.8639 298.405L3.64804 283.132V221.695L53.5722 192.63L56.0798 191.148L56.4217 190.92L56.6497 191.034L59.1573 192.516L106.46 219.985L109.195 221.581V283.018L108.967 283.132L82.9796 298.291L82.4097 298.747ZM109.423 221.125L106.688 219.53L59.4992 192.06C59.3853 192.288 59.3853 192.402 59.2713 192.516L106.46 219.985L109.195 221.581V283.018L109.537 282.79L109.879 282.676V221.239L109.423 221.125ZM109.423 221.125L106.688 219.53L59.4992 192.06C59.3853 192.288 59.3853 192.402 59.2713 192.516L106.46 219.985L109.195 221.581V283.018L109.537 282.79L109.879 282.676V221.239L109.423 221.125Z" fill="url(#paint16_linear)"/>
<path opacity="0.8471" d="M427.996 0V36.2463L377.73 65.5397L374.652 67.3634L371.575 65.5397L324.386 38.07L321.651 36.4743L321.309 36.2463V0H321.879V35.9044L324.614 37.5001L371.917 65.0838L374.652 66.6795L377.388 65.0838L427.426 35.9044V0H427.996Z" fill="url(#paint17_linear)"/>
<path opacity="0.7774" d="M295.098 51.178L268.882 35.9044L268.54 35.7904L268.198 35.9044L241.983 51.178L241.641 51.2919V82.523L265.349 96.3149L268.084 97.9106L268.426 98.1386L268.768 97.9106L271.504 96.3149L295.212 82.523V51.4059L295.098 51.178ZM294.756 82.2951L271.276 95.9729L268.768 97.4547L268.426 97.5687L268.084 97.4547L265.577 95.9729L242.097 82.2951V51.7479L242.438 51.6339L268.084 36.7022L268.426 36.4743L268.768 36.7022L294.414 51.6339L294.756 51.7479V82.2951Z" fill="url(#paint18_linear)"/>
<path opacity="0.6187" d="M278.117 0L268.884 5.35716L268.543 5.47114L268.315 5.35716L259.082 0H260.222L268.543 4.90123L276.977 0H278.117Z" fill="url(#paint19_linear)"/>
<path opacity="0.6525" d="M401.443 0V20.8587L398.365 22.5685L374.657 36.4743L350.835 22.5685L347.871 20.8587V0H348.441V20.5168L351.177 22.1125L374.657 35.7904L398.137 22.1125L400.873 20.5168V0H401.443Z" fill="url(#paint20_linear)"/>
<path opacity="0.6134" d="M427.996 0V36.2463L377.73 65.5397L374.652 67.3634L371.575 65.5397L324.386 38.07L321.651 36.4743L321.309 36.2463V0H321.879V35.9044L324.614 37.5001L371.917 65.0838L374.652 66.6795L377.388 65.0838L427.426 35.9044V0H427.996Z" fill="url(#paint21_linear)"/>
<path opacity="0.951" d="M154.902 185.791L112.501 161.057L109.765 159.461V159.803L109.651 159.917L109.537 160.031L112.273 161.627L147.151 181.915L159.461 189.096C159.575 188.868 159.575 188.754 159.689 188.64L154.902 185.791ZM162.197 190.122L159.689 188.64L154.902 185.905L112.501 161.171L109.765 159.575V159.917L109.651 160.031L109.537 160.145L112.273 161.741L147.151 182.029L159.461 189.21L161.969 190.692L162.197 190.578L162.539 190.35L162.197 190.122ZM162.197 190.122L159.689 188.64L154.902 185.905L112.501 161.171L109.765 159.575V159.917L109.651 160.031L109.537 160.145L112.273 161.741L147.151 182.029L159.461 189.21L161.969 190.692L162.197 190.578L162.539 190.35L162.197 190.122ZM162.653 66.7935L162.539 66.6795L109.423 97.5687L109.195 97.6826V159.803L109.537 160.031L112.273 161.627L147.151 181.915L159.461 189.096L161.969 190.578L162.197 190.692L162.539 190.92L162.881 190.692L163.109 190.578L165.616 189.096L212.805 161.627L215.769 159.917L215.883 159.803V97.6826L162.653 66.7935ZM215.199 159.461L212.463 161.057L171.885 184.765L165.274 188.64L162.767 190.122L162.425 190.236L162.083 190.122L159.575 188.64L154.788 185.905L112.387 161.171L109.651 159.575V98.0246L109.879 97.9106L162.311 67.3634L215.085 98.1386V159.461H215.199ZM162.197 190.122L159.689 188.64L154.902 185.905L112.501 161.171L109.765 159.575V159.917L109.651 160.031L109.537 160.145L112.273 161.741L147.151 182.029L159.461 189.21L161.969 190.692L162.197 190.578L162.539 190.35L162.197 190.122ZM112.501 161.171L109.765 159.575L112.501 161.171L154.902 185.905L112.501 161.171Z" fill="url(#paint22_linear)"/>
<path opacity="0.6699" d="M162.198 190.692L161.97 190.578L159.462 192.06L112.274 219.53C112.388 219.644 112.501 219.871 112.501 219.985L159.69 192.516L162.198 191.034L162.54 190.806L162.198 190.692ZM162.198 190.692L161.97 190.578L159.462 192.06L112.274 219.53L109.424 221.125L109.766 221.239V221.581L112.501 219.985L159.69 192.516L162.198 191.034L162.54 190.806L162.198 190.692ZM162.198 190.692L161.97 190.578L159.462 192.06L112.274 219.53L109.424 221.125L109.766 221.239V221.581L112.501 219.985L159.69 192.516L162.198 191.034L162.54 190.806L162.198 190.692ZM165.503 192.06L162.996 190.578L162.768 190.464L162.654 190.35L162.54 190.236L162.198 190.464L161.97 190.578L159.462 192.06L112.274 219.53L109.424 221.125L109.082 221.239V283.36L109.424 283.473L135.64 298.747L136.21 299.089L159.348 312.539L162.312 314.249L162.426 314.363L165.503 312.539L188.642 299.089L189.211 298.747L215.541 283.36L215.655 283.246V221.125L165.503 192.06ZM188.983 298.405L188.414 298.747L165.275 312.197L162.54 313.793L159.804 312.197L136.666 298.747L136.096 298.405L110.108 283.246L109.88 283.132V221.695L112.615 220.099L159.804 192.63L162.312 191.148L162.654 190.92L162.996 191.148L165.503 192.63L215.427 221.695V283.132L188.983 298.405ZM162.198 190.692L161.97 190.578L159.462 192.06L112.274 219.53L109.424 221.125L109.766 221.239V221.581L112.501 219.985L159.69 192.516L162.198 191.034L162.54 190.806L162.198 190.692ZM162.198 190.692V191.034L162.54 190.806L162.198 190.692Z" fill="url(#paint23_linear)"/>
<path opacity="0.9074" d="M112.843 36.1323C112.843 38.07 111.361 39.5518 109.423 39.5518C107.6 39.5518 106.004 38.07 106.004 36.1323C106.004 34.1946 107.486 32.7129 109.423 32.7129C111.361 32.7129 112.843 34.1946 112.843 36.1323Z" fill="url(#paint24_linear)"/>
<path opacity="0.6002" d="M59.8389 67.0214C59.8389 68.9591 58.3572 70.4409 56.4195 70.4409C54.5957 70.4409 53 68.9591 53 67.0214C53 65.0837 54.4818 63.602 56.4195 63.602C58.2432 63.602 59.8389 65.0837 59.8389 67.0214Z" fill="url(#paint25_linear)"/>
<path opacity="0.8428" d="M6.72494 36.1323C6.72494 36.7022 6.61096 37.1582 6.383 37.6141C6.26901 37.7281 6.15503 37.9561 6.04105 38.07C5.47114 38.8679 4.55928 39.4378 3.53344 39.5518C3.41946 39.5518 3.30548 39.5518 3.1915 39.5518C3.07752 39.5518 2.96353 39.5518 2.84955 39.5518C1.82371 39.4378 0.911857 38.8679 0.341946 38.07C0.227964 37.9561 0.113982 37.7281 0 37.6141C0.113982 37.1582 0 36.5883 0 36.1323C0 35.6764 0.113982 35.1065 0.341946 34.6506C0.455928 34.4226 0.455928 34.3086 0.683892 34.1946C1.2538 33.3968 2.16566 32.8269 3.1915 32.7129C3.30548 32.7129 3.41946 32.7129 3.53344 32.7129C3.64743 32.7129 3.76141 32.7129 3.87539 32.7129C5.35716 32.8269 6.72494 34.3086 6.72494 36.1323Z" fill="url(#paint26_linear)"/>
<path opacity="0.9917" d="M192.401 144.187C192.401 146.125 190.92 147.607 188.982 147.607C187.158 147.607 185.562 146.125 185.562 144.187C185.562 142.25 187.044 140.768 188.982 140.768C190.92 140.768 192.401 142.364 192.401 144.187Z" fill="url(#paint27_linear)"/>
<path opacity="0.9612" d="M192.401 113.298C192.401 115.236 190.92 116.718 188.982 116.718C187.158 116.718 185.562 115.236 185.562 113.298C185.562 111.361 187.044 109.879 188.982 109.879C190.92 109.879 192.401 111.475 192.401 113.298Z" fill="url(#paint28_linear)"/>
<path opacity="0.6836" d="M324.964 36.1323C324.964 38.07 323.482 39.5518 321.544 39.5518C319.721 39.5518 318.125 38.07 318.125 36.1323C318.125 34.1946 319.607 32.7129 321.544 32.7129C323.482 32.7129 324.964 34.1946 324.964 36.1323Z" fill="url(#paint29_linear)"/>
<path opacity="0.9087" d="M6.72494 36.1323C6.72494 36.7022 6.61096 37.1582 6.383 37.6141C6.26901 37.7281 6.15503 37.9561 6.04105 38.07C5.47114 38.8679 4.55928 39.4378 3.53344 39.5518C3.41946 39.5518 3.30548 39.5518 3.1915 39.5518C3.07752 39.5518 2.96353 39.5518 2.84955 39.5518C1.82371 39.4378 0.911857 38.8679 0.341946 38.07C0.227964 37.9561 0.113982 37.7281 0 37.6141C0.113982 37.1582 0 36.5883 0 36.1323C0 35.6764 0.113982 35.1065 0.341946 34.6506C0.455928 34.4226 0.455928 34.3086 0.683892 34.1946C1.2538 33.3968 2.16566 32.8269 3.1915 32.7129C3.30548 32.7129 3.41946 32.7129 3.53344 32.7129C3.64743 32.7129 3.76141 32.7129 3.87539 32.7129C5.35716 32.8269 6.72494 34.3086 6.72494 36.1323Z" fill="url(#paint30_linear)"/>
<path opacity="0.7254" d="M112.843 36.1323C112.843 38.07 111.361 39.5518 109.423 39.5518C107.6 39.5518 106.004 38.07 106.004 36.1323C106.004 34.1946 107.486 32.7129 109.423 32.7129C111.361 32.7129 112.843 34.1946 112.843 36.1323Z" fill="url(#paint31_linear)"/>
<path opacity="0.5217" d="M59.8389 128.8C59.8389 130.737 58.3572 132.219 56.4195 132.219C54.5957 132.219 53 130.737 53 128.8C53 126.862 54.4818 125.38 56.4195 125.38C58.2432 125.38 59.8389 126.862 59.8389 128.8Z" fill="url(#paint32_linear)"/>
<path opacity="0.758" d="M59.8389 5.24317C59.8389 7.18086 58.3572 8.66263 56.4195 8.66263C54.5957 8.66263 53 7.18086 53 5.24317C53 3.30547 54.4818 1.82371 56.4195 1.82371C58.2432 1.82371 59.8389 3.30547 59.8389 5.24317Z" fill="url(#paint33_linear)"/>
<path opacity="0.5672" d="M258.741 136.551C258.741 138.488 257.26 139.97 255.322 139.97C253.498 139.97 251.902 138.488 251.902 136.551C251.902 134.613 253.384 133.131 255.322 133.131C257.146 133.131 258.741 134.613 258.741 136.551Z" fill="url(#paint34_linear)"/>
<path opacity="0.6639" d="M285.183 121.049C285.183 122.987 283.701 124.468 281.763 124.468C279.939 124.468 278.344 122.987 278.344 121.049C278.344 119.111 279.826 117.63 281.763 117.63C283.701 117.63 285.183 119.225 285.183 121.049Z" fill="url(#paint35_linear)"/>
<path opacity="0.7845" d="M271.964 113.298C271.964 115.236 270.482 116.718 268.544 116.718C266.721 116.718 265.125 115.236 265.125 113.298C265.125 111.361 266.607 109.879 268.544 109.879C270.482 109.879 271.964 111.475 271.964 113.298Z" fill="url(#paint36_linear)"/>
<path opacity="0.8686" d="M165.843 345.024C165.843 346.961 164.361 348.443 162.423 348.443C160.6 348.443 159.004 346.961 159.004 345.024C159.004 343.086 160.486 341.604 162.423 341.604C164.361 341.604 165.843 343.2 165.843 345.024Z" fill="url(#paint37_linear)"/>
<path opacity="0.9438" d="M112.843 221.467C112.843 223.405 111.361 224.887 109.423 224.887C107.6 224.887 106.004 223.405 106.004 221.467C106.004 219.529 107.486 218.048 109.423 218.048C111.361 218.048 112.843 219.529 112.843 221.467Z" fill="url(#paint38_linear)"/>
<path opacity="0.8488" d="M59.8389 190.578C59.8389 192.516 58.3572 193.998 56.4195 193.998C54.5957 193.998 53 192.516 53 190.578C53 188.64 54.4818 187.159 56.4195 187.159C58.2432 187.159 59.8389 188.64 59.8389 190.578Z" fill="url(#paint39_linear)"/>
<path opacity="0.5604" d="M324.964 36.1323C324.964 38.07 323.482 39.5518 321.544 39.5518C319.721 39.5518 318.125 38.07 318.125 36.1323C318.125 34.1946 319.607 32.7129 321.544 32.7129C323.482 32.7129 324.964 34.1946 324.964 36.1323Z" fill="url(#paint40_linear)"/>
<path opacity="0.8646" d="M377.968 67.0214C377.968 68.9591 376.486 70.4409 374.548 70.4409C372.725 70.4409 371.129 68.9591 371.129 67.0214C371.129 65.0837 372.611 63.602 374.548 63.602C376.486 63.602 377.968 65.0837 377.968 67.0214Z" fill="url(#paint41_linear)"/>
<path opacity="0.5312" d="M271.964 97.9106C271.964 99.8483 270.482 101.33 268.544 101.33C266.721 101.33 265.125 99.8483 265.125 97.9106C265.125 95.9729 266.607 94.4911 268.544 94.4911C270.482 94.4911 271.964 95.9729 271.964 97.9106Z" fill="url(#paint42_linear)"/>
<path opacity="0.7235" d="M351.519 20.6308C351.519 22.5685 350.037 24.0502 348.099 24.0502C346.275 24.0502 344.68 22.5685 344.68 20.6308C344.68 18.6931 346.161 17.2113 348.099 17.2113C350.037 17.2113 351.519 18.807 351.519 20.6308Z" fill="url(#paint43_linear)"/>
<path opacity="0.5885" d="M404.523 20.6308C404.523 22.5685 403.041 24.0502 401.103 24.0502C399.279 24.0502 397.684 22.5685 397.684 20.6308C397.684 18.6931 399.165 17.2113 401.103 17.2113C403.041 17.2113 404.523 18.807 404.523 20.6308Z" fill="url(#paint44_linear)"/>
<path opacity="0.8858" d="M112.843 159.689C112.843 161.627 111.361 163.108 109.423 163.108C107.6 163.108 106.004 161.627 106.004 159.689C106.004 157.751 107.486 156.269 109.423 156.269C111.361 156.269 112.843 157.751 112.843 159.689Z" fill="url(#paint45_linear)"/>
<path opacity="0.5875" d="M218.96 159.689C218.96 161.627 217.478 163.108 215.541 163.108C213.603 163.108 212.121 161.627 212.121 159.689C212.121 157.751 213.603 156.269 215.541 156.269C217.478 156.269 218.96 157.751 218.96 159.689Z" fill="url(#paint46_linear)"/>
<path opacity="0.6677" d="M165.843 314.135C165.843 316.072 164.361 317.554 162.423 317.554C160.6 317.554 159.004 316.072 159.004 314.135C159.004 312.197 160.486 310.715 162.423 310.715C164.361 310.715 165.843 312.311 165.843 314.135Z" fill="url(#paint47_linear)"/>
<path opacity="0.779" d="M165.843 190.578C165.843 192.516 164.361 193.998 162.423 193.998C160.6 193.998 159.004 192.516 159.004 190.578C159.004 188.64 160.486 187.159 162.423 187.159C164.361 187.159 165.843 188.64 165.843 190.578Z" fill="url(#paint48_linear)"/>
<defs>
<linearGradient id="paint0_linear" x1="3.07813" y1="34.1561" x2="109.765" y2="34.1561" gradientUnits="userSpaceOnUse">
<stop stop-color="#00B2FF"/>
<stop offset="1" stop-color="#00FFC2"/>
</linearGradient>
<linearGradient id="paint1_linear" x1="0.222656" y1="66.7903" x2="3.64212" y2="66.7903" gradientUnits="userSpaceOnUse">
<stop stop-color="#00B2FF"/>
<stop offset="1" stop-color="#00FFC2"/>
</linearGradient>
<linearGradient id="paint2_linear" x1="3.07813" y1="34.1561" x2="109.765" y2="34.1561" gradientUnits="userSpaceOnUse">
<stop stop-color="#00B2FF"/>
<stop offset="1" stop-color="#00FFC2"/>
</linearGradient>
<linearGradient id="paint3_linear" x1="3.07813" y1="283.31" x2="3.64804" y2="283.31" gradientUnits="userSpaceOnUse">
<stop stop-color="#00B2FF"/>
<stop offset="1" stop-color="#00FFC2"/>
</linearGradient>
<linearGradient id="paint4_linear" x1="46.957" y1="2.7741" x2="65.8781" y2="2.7741" gradientUnits="userSpaceOnUse">
<stop stop-color="#00B2FF"/>
<stop offset="1" stop-color="#00FFC2"/>
</linearGradient>
<linearGradient id="paint5_linear" x1="2.96484" y1="192.323" x2="162.654" y2="192.323" gradientUnits="userSpaceOnUse">
<stop stop-color="#00B2FF"/>
<stop offset="1" stop-color="#00FFC2"/>
</linearGradient>
<linearGradient id="paint6_linear" x1="135.637" y1="129.24" x2="189.436" y2="129.24" gradientUnits="userSpaceOnUse">
<stop stop-color="#00B2FF"/>
<stop offset="1" stop-color="#00FFC2"/>
</linearGradient>
<linearGradient id="paint7_linear" x1="29.6367" y1="314.631" x2="83.2083" y2="314.631" gradientUnits="userSpaceOnUse">
<stop stop-color="#00B2FF"/>
<stop offset="1" stop-color="#00FFC2"/>
</linearGradient>
<linearGradient id="paint8_linear" x1="152.961" y1="2.7741" x2="171.996" y2="2.7741" gradientUnits="userSpaceOnUse">
<stop stop-color="#00B2FF"/>
<stop offset="1" stop-color="#00FFC2"/>
</linearGradient>
<linearGradient id="paint9_linear" x1="215.199" y1="34.1561" x2="321.886" y2="34.1561" gradientUnits="userSpaceOnUse">
<stop stop-color="#00B2FF"/>
<stop offset="1" stop-color="#00FFC2"/>
</linearGradient>
<linearGradient id="paint10_linear" x1="3.07813" y1="34.1561" x2="109.765" y2="34.1561" gradientUnits="userSpaceOnUse">
<stop stop-color="#00B2FF"/>
<stop offset="1" stop-color="#00FFC2"/>
</linearGradient>
<linearGradient id="paint11_linear" x1="56.1953" y1="96.8045" x2="268.886" y2="96.8045" gradientUnits="userSpaceOnUse">
<stop stop-color="#00B2FF"/>
<stop offset="1" stop-color="#00FFC2"/>
</linearGradient>
<linearGradient id="paint12_linear" x1="254.977" y1="128.963" x2="282.104" y2="128.963" gradientUnits="userSpaceOnUse">
<stop stop-color="#00B2FF"/>
<stop offset="1" stop-color="#00FFC2"/>
</linearGradient>
<linearGradient id="paint13_linear" x1="3.07813" y1="129.675" x2="109.651" y2="129.675" gradientUnits="userSpaceOnUse">
<stop stop-color="#00B2FF"/>
<stop offset="1" stop-color="#00FFC2"/>
</linearGradient>
<linearGradient id="paint14_linear" x1="56.0781" y1="192.267" x2="268.655" y2="192.267" gradientUnits="userSpaceOnUse">
<stop stop-color="#00B2FF"/>
<stop offset="1" stop-color="#00FFC2"/>
</linearGradient>
<linearGradient id="paint15_linear" x1="135.637" y1="314.631" x2="189.208" y2="314.631" gradientUnits="userSpaceOnUse">
<stop stop-color="#00B2FF"/>
<stop offset="1" stop-color="#00FFC2"/>
</linearGradient>
<linearGradient id="paint16_linear" x1="3.07813" y1="253.231" x2="109.879" y2="253.231" gradientUnits="userSpaceOnUse">
<stop stop-color="#00B2FF"/>
<stop offset="1" stop-color="#00FFC2"/>
</linearGradient>
<linearGradient id="paint17_linear" x1="321.309" y1="34.1561" x2="427.996" y2="34.1561" gradientUnits="userSpaceOnUse">
<stop stop-color="#00B2FF"/>
<stop offset="1" stop-color="#00FFC2"/>
</linearGradient>
<linearGradient id="paint18_linear" x1="241.641" y1="67.4035" x2="295.212" y2="67.4035" gradientUnits="userSpaceOnUse">
<stop stop-color="#00B2FF"/>
<stop offset="1" stop-color="#00FFC2"/>
</linearGradient>
<linearGradient id="paint19_linear" x1="259.082" y1="2.7741" x2="278.117" y2="2.7741" gradientUnits="userSpaceOnUse">
<stop stop-color="#00B2FF"/>
<stop offset="1" stop-color="#00FFC2"/>
</linearGradient>
<linearGradient id="paint20_linear" x1="347.871" y1="18.494" x2="401.443" y2="18.494" gradientUnits="userSpaceOnUse">
<stop stop-color="#00B2FF"/>
<stop offset="1" stop-color="#00FFC2"/>
</linearGradient>
<linearGradient id="paint21_linear" x1="321.309" y1="34.1561" x2="427.996" y2="34.1561" gradientUnits="userSpaceOnUse">
<stop stop-color="#00B2FF"/>
<stop offset="1" stop-color="#00FFC2"/>
</linearGradient>
<linearGradient id="paint22_linear" x1="109.195" y1="129.675" x2="215.883" y2="129.675" gradientUnits="userSpaceOnUse">
<stop stop-color="#00B2FF"/>
<stop offset="1" stop-color="#00FFC2"/>
</linearGradient>
<linearGradient id="paint23_linear" x1="109.082" y1="253.174" x2="215.655" y2="253.174" gradientUnits="userSpaceOnUse">
<stop stop-color="#00B2FF"/>
<stop offset="1" stop-color="#00FFC2"/>
</linearGradient>
<linearGradient id="paint24_linear" x1="106.004" y1="36.1805" x2="112.843" y2="36.1805" gradientUnits="userSpaceOnUse">
<stop stop-color="#00B2FF"/>
<stop offset="1" stop-color="#00FFC2"/>
</linearGradient>
<linearGradient id="paint25_linear" x1="53" y1="67.0696" x2="59.8389" y2="67.0696" gradientUnits="userSpaceOnUse">
<stop stop-color="#00B2FF"/>
<stop offset="1" stop-color="#00FFC2"/>
</linearGradient>
<linearGradient id="paint26_linear" x1="2.379e-08" y1="36.1805" x2="6.72494" y2="36.1805" gradientUnits="userSpaceOnUse">
<stop stop-color="#00B2FF"/>
<stop offset="1" stop-color="#00FFC2"/>
</linearGradient>
<linearGradient id="paint27_linear" x1="185.563" y1="144.235" x2="192.401" y2="144.235" gradientUnits="userSpaceOnUse">
<stop stop-color="#00B2FF"/>
<stop offset="1" stop-color="#00FFC2"/>
</linearGradient>
<linearGradient id="paint28_linear" x1="185.563" y1="113.346" x2="192.401" y2="113.346" gradientUnits="userSpaceOnUse">
<stop stop-color="#00B2FF"/>
<stop offset="1" stop-color="#00FFC2"/>
</linearGradient>
<linearGradient id="paint29_linear" x1="318.125" y1="36.1805" x2="324.964" y2="36.1805" gradientUnits="userSpaceOnUse">
<stop stop-color="#00B2FF"/>
<stop offset="1" stop-color="#00FFC2"/>
</linearGradient>
<linearGradient id="paint30_linear" x1="2.379e-08" y1="36.1805" x2="6.72494" y2="36.1805" gradientUnits="userSpaceOnUse">
<stop stop-color="#00B2FF"/>
<stop offset="1" stop-color="#00FFC2"/>
</linearGradient>
<linearGradient id="paint31_linear" x1="106.004" y1="36.1805" x2="112.843" y2="36.1805" gradientUnits="userSpaceOnUse">
<stop stop-color="#00B2FF"/>
<stop offset="1" stop-color="#00FFC2"/>
</linearGradient>
<linearGradient id="paint32_linear" x1="53" y1="128.848" x2="59.8389" y2="128.848" gradientUnits="userSpaceOnUse">
<stop stop-color="#00B2FF"/>
<stop offset="1" stop-color="#00FFC2"/>
</linearGradient>
<linearGradient id="paint33_linear" x1="53" y1="5.29133" x2="59.8389" y2="5.29133" gradientUnits="userSpaceOnUse">
<stop stop-color="#00B2FF"/>
<stop offset="1" stop-color="#00FFC2"/>
</linearGradient>
<linearGradient id="paint34_linear" x1="251.902" y1="136.599" x2="258.741" y2="136.599" gradientUnits="userSpaceOnUse">
<stop stop-color="#00B2FF"/>
<stop offset="1" stop-color="#00FFC2"/>
</linearGradient>
<linearGradient id="paint35_linear" x1="278.344" y1="121.097" x2="285.183" y2="121.097" gradientUnits="userSpaceOnUse">
<stop stop-color="#00B2FF"/>
<stop offset="1" stop-color="#00FFC2"/>
</linearGradient>
<linearGradient id="paint36_linear" x1="265.125" y1="113.346" x2="271.964" y2="113.346" gradientUnits="userSpaceOnUse">
<stop stop-color="#00B2FF"/>
<stop offset="1" stop-color="#00FFC2"/>
</linearGradient>
<linearGradient id="paint37_linear" x1="159.004" y1="345.072" x2="165.843" y2="345.072" gradientUnits="userSpaceOnUse">
<stop stop-color="#00B2FF"/>
<stop offset="1" stop-color="#00FFC2"/>
</linearGradient>
<linearGradient id="paint38_linear" x1="106.004" y1="221.515" x2="112.843" y2="221.515" gradientUnits="userSpaceOnUse">
<stop stop-color="#00B2FF"/>
<stop offset="1" stop-color="#00FFC2"/>
</linearGradient>
<linearGradient id="paint39_linear" x1="53" y1="190.626" x2="59.8389" y2="190.626" gradientUnits="userSpaceOnUse">
<stop stop-color="#00B2FF"/>
<stop offset="1" stop-color="#00FFC2"/>
</linearGradient>
<linearGradient id="paint40_linear" x1="318.125" y1="36.1805" x2="324.964" y2="36.1805" gradientUnits="userSpaceOnUse">
<stop stop-color="#00B2FF"/>
<stop offset="1" stop-color="#00FFC2"/>
</linearGradient>
<linearGradient id="paint41_linear" x1="371.129" y1="67.0696" x2="377.968" y2="67.0696" gradientUnits="userSpaceOnUse">
<stop stop-color="#00B2FF"/>
<stop offset="1" stop-color="#00FFC2"/>
</linearGradient>
<linearGradient id="paint42_linear" x1="265.125" y1="97.9588" x2="271.964" y2="97.9588" gradientUnits="userSpaceOnUse">
<stop stop-color="#00B2FF"/>
<stop offset="1" stop-color="#00FFC2"/>
</linearGradient>
<linearGradient id="paint43_linear" x1="344.68" y1="20.6789" x2="351.519" y2="20.6789" gradientUnits="userSpaceOnUse">
<stop stop-color="#00B2FF"/>
<stop offset="1" stop-color="#00FFC2"/>
</linearGradient>
<linearGradient id="paint44_linear" x1="397.684" y1="20.6789" x2="404.523" y2="20.6789" gradientUnits="userSpaceOnUse">
<stop stop-color="#00B2FF"/>
<stop offset="1" stop-color="#00FFC2"/>
</linearGradient>
<linearGradient id="paint45_linear" x1="106.004" y1="159.737" x2="112.843" y2="159.737" gradientUnits="userSpaceOnUse">
<stop stop-color="#00B2FF"/>
<stop offset="1" stop-color="#00FFC2"/>
</linearGradient>
<linearGradient id="paint46_linear" x1="212.121" y1="159.737" x2="218.96" y2="159.737" gradientUnits="userSpaceOnUse">
<stop stop-color="#00B2FF"/>
<stop offset="1" stop-color="#00FFC2"/>
</linearGradient>
<linearGradient id="paint47_linear" x1="159.004" y1="314.183" x2="165.843" y2="314.183" gradientUnits="userSpaceOnUse">
<stop stop-color="#00B2FF"/>
<stop offset="1" stop-color="#00FFC2"/>
</linearGradient>
<linearGradient id="paint48_linear" x1="159.004" y1="190.626" x2="165.843" y2="190.626" gradientUnits="userSpaceOnUse">
<stop stop-color="#00B2FF"/>
<stop offset="1" stop-color="#00FFC2"/>
</linearGradient>
</defs>
</svg>
