<svg width="80" height="75" viewBox="0 0 80 75" fill="none" xmlns="http://www.w3.org/2000/svg">
<path d="M28.8782 26.3259C29.4698 26.3259 30.0644 26.2327 30.6435 26.0449C30.8368 25.9823 31.0248 25.9094 31.2078 25.828C34.8764 28.5011 38.1592 31.6582 40.9717 35.2229C41.7234 36.1753 42.8191 36.6941 43.9653 36.6941C44.3946 36.6941 44.8311 36.6213 45.2593 36.4712C46.8297 35.9207 47.8377 34.4876 47.8273 32.82C47.7763 25.123 44.6432 17.6722 39.2105 12.2714C39.3367 11.4146 39.2661 10.5339 38.9912 9.68595C38.7254 8.86619 38.2878 8.13306 37.7123 7.52533L37.9884 6.98424C38.927 5.14461 38.1942 2.88432 36.3544 1.94551L33.3475 0.411221C32.4561 -0.0435335 31.4414 -0.124131 30.4897 0.184464C29.538 0.493059 28.7635 1.1538 28.3086 2.04502L28.0326 2.58595C27.2027 2.47668 26.3521 2.55263 25.5324 2.81845C24.6839 3.09356 23.9291 3.55359 23.3093 4.159C15.7499 2.92803 7.87923 4.76301 1.61589 9.2391C0.259535 10.2081 -0.309916 11.8647 0.165298 13.4595C0.640977 15.0559 2.0257 16.1317 3.69329 16.2004C8.23061 16.3859 12.7131 17.1914 17.0292 18.593C17.0709 18.7891 17.1222 18.9841 17.1848 19.1774C17.4506 19.9973 17.8885 20.7307 18.4641 21.3386L10.2482 37.4387C9.95632 38.0105 10.1834 38.7107 10.7552 39.0024C10.9244 39.0888 11.1048 39.1297 11.2826 39.1297C11.7056 39.1297 12.1135 38.898 12.3189 38.4955L20.3865 22.6865L25.9243 25.5123L11.2869 54.1974C10.9305 54.895 10.0727 55.1732 9.37555 54.8176L6.36927 53.2835C5.67087 52.9267 5.3925 52.0696 5.74883 51.3721L10.2065 42.6368C10.4982 42.065 10.2713 41.3647 9.69949 41.073C9.12741 40.7812 8.42745 41.0081 8.13559 41.58L3.67825 50.3149C2.73899 52.1533 3.47149 54.4137 5.31174 55.3541L8.31895 56.8887C8.86205 57.1657 9.44173 57.2968 10.0135 57.2966C11.3773 57.2965 12.6952 56.55 13.3572 55.2546L28.1443 26.2761C28.3878 26.3082 28.6327 26.3259 28.8782 26.3259ZM45.5023 32.835C45.5087 33.8417 44.7291 34.1936 44.4899 34.2774C44.2506 34.3614 43.4209 34.5736 42.7966 33.7828C40.005 30.2446 36.7699 27.0905 33.1683 24.3877C33.4777 24.0347 33.7455 23.6411 33.9644 23.212L38.3131 14.6901C42.8554 19.5864 45.4577 26.108 45.5023 32.835ZM31.2069 2.39608C31.5679 2.27906 31.9529 2.3096 32.2909 2.48211L35.2978 4.0164C35.9956 4.37242 36.2737 5.22985 35.9175 5.92764L35.7901 6.17734L30.2523 3.35147L30.3797 3.10178C30.5522 2.76373 30.846 2.51311 31.2069 2.39608ZM2.3935 12.7956C2.32128 12.5529 2.14892 11.7158 2.96776 11.1308C8.44233 7.21844 15.2499 5.49892 21.8782 6.30459L17.5301 14.8257C17.3113 15.2546 17.1496 15.7025 17.0455 16.1601C12.7445 14.8302 8.29245 14.0618 3.78892 13.8775C2.78099 13.8359 2.46604 13.0388 2.3935 12.7956ZM19.3964 18.4602C19.1181 17.6017 19.1906 16.6863 19.6009 15.8823L24.2823 6.70819C24.6924 5.90439 25.3912 5.30828 26.2497 5.03007C26.5927 4.91878 26.9448 4.8636 27.2953 4.8636C27.8218 4.8636 28.3447 4.98822 28.8274 5.2345L35.1013 8.43592C35.9051 8.84619 36.5012 9.54475 36.7794 10.4033C37.0578 11.2618 36.9852 12.1772 36.575 12.9811L31.8935 22.1553C31.4834 22.9591 30.7847 23.5552 29.9262 23.8334C29.0678 24.1118 28.1521 24.0392 27.3484 23.629L21.0746 20.4276C20.2709 20.0173 19.6748 19.3187 19.3964 18.4602Z" fill="white"/>
<path d="M36.5149 61.0834C36.7419 61.3104 37.0395 61.4239 37.3369 61.4239C37.6343 61.4239 37.9319 61.3104 38.1588 61.0834L39.5646 59.6776L40.5014 60.6143L39.0956 62.0201C38.6416 62.4741 38.6416 63.2102 39.0956 63.664C39.3225 63.8911 39.6201 64.0045 39.9175 64.0045C40.215 64.0045 40.5126 63.8911 40.7395 63.664L42.1454 62.2582L42.2157 62.3284C43.0889 63.2017 44.2498 63.6826 45.4847 63.6826C46.7197 63.6826 47.8806 63.2017 48.7538 62.3286C49.627 61.4553 50.108 60.2943 50.108 59.0594C50.108 58.5545 50.0263 58.0622 49.8715 57.5966C50.5889 57.4349 51.248 57.0749 51.7807 56.5422C52.5236 55.7993 52.9328 54.8113 52.9328 53.7608C52.9328 53.1101 52.7755 52.4836 52.4796 51.9244L54.0086 50.3955C54.4626 49.9416 54.4626 49.2055 54.0086 48.7515C53.5548 48.2975 52.8187 48.2975 52.3647 48.7515L50.9588 50.1573L50.022 49.2205L51.4278 47.8147C51.8818 47.3607 51.8818 46.6248 51.4278 46.1708C50.9738 45.7169 50.2377 45.7169 49.7839 46.1708L48.3781 47.5766L48.1968 47.3953C48.1966 47.3951 48.1964 47.395 48.1964 47.3948L46.8091 46.0075C46.3551 45.5535 45.619 45.5535 45.1652 46.0075C44.7112 46.4615 44.7112 47.1975 45.1652 47.6515L45.7306 48.2169L38.5613 55.3862L37.9961 54.8209C37.5421 54.367 36.806 54.367 36.3522 54.8209C35.8982 55.2749 35.8982 56.011 36.3522 56.4648L37.7396 57.8522L37.9212 58.0338L36.5154 59.4396C36.061 59.8935 36.061 60.6294 36.5149 61.0834ZM50.1368 54.8981C49.833 55.2019 49.429 55.3693 48.9993 55.3693C48.5697 55.3693 48.1656 55.2019 47.8618 54.8981L46.4241 53.4604L45.0993 52.1357L47.3744 49.8607L50.1367 52.6231C50.4405 52.9269 50.6079 53.331 50.6079 53.7606C50.608 54.1903 50.4406 54.5943 50.1368 54.8981ZM43.4553 53.7797L47.1099 57.4342C47.5441 57.8683 47.7831 58.4455 47.7831 59.0593C47.7831 59.6732 47.5441 60.2503 47.1099 60.6844C46.6758 61.1185 46.0987 61.3575 45.4847 61.3575C44.8707 61.3575 44.2937 61.1185 43.8595 60.6844L42.9675 59.7924C42.9675 59.7924 42.9675 59.7924 42.9674 59.7922C42.9672 59.7921 42.9674 59.7922 42.9672 59.7921L40.2049 57.0298L43.4553 53.7797Z" fill="white"/>
<path d="M25.8799 49.779L22.5532 49.6734C21.6639 49.6457 20.7951 49.9905 20.168 50.6209C19.5409 51.2513 19.2001 52.1223 19.2326 53.0108L19.2607 53.7726C19.2934 54.6612 19.6973 55.5048 20.369 56.0873C20.956 56.5961 21.7111 56.8745 22.4822 56.8745C22.5938 56.8745 22.7057 56.8686 22.8176 56.8568L26.1274 56.5071C27.8043 56.33 29.0693 54.8712 29.0075 53.1861L28.9962 52.8795C28.934 51.1944 27.5653 49.8325 25.8799 49.779ZM25.8831 54.1954L22.5734 54.5451C22.3237 54.5716 22.0819 54.4953 21.8925 54.331C21.7029 54.1666 21.5933 53.938 21.5842 53.6873L21.5561 52.9254C21.5468 52.6746 21.6392 52.4385 21.8162 52.2608C21.9862 52.0898 22.2104 51.9968 22.4501 51.9968C22.4599 51.9968 22.4698 51.997 22.4796 51.9973L25.8061 52.1028C26.2748 52.1177 26.6555 52.4965 26.6728 52.9651L26.6841 53.2716C26.7013 53.7403 26.3495 54.1461 25.8831 54.1954Z" fill="white"/>
<path d="M30.662 46.2058L30.8056 45.9347C31.5945 44.4443 31.09 42.5805 29.6571 41.6914L26.8289 39.9368C26.0734 39.468 25.1478 39.3324 24.2896 39.5648C23.4312 39.7971 22.7004 40.381 22.2846 41.1668L21.9279 41.8405C21.5119 42.6264 21.44 43.5591 21.7306 44.3995C22.0211 45.2399 22.6536 45.9288 23.4661 46.2901L26.5074 47.6422C26.9285 47.8294 27.3706 47.9182 27.8072 47.9182C28.9681 47.9182 30.0886 47.2891 30.662 46.2058ZM28.7506 44.8471L28.6071 45.1182C28.3876 45.5327 27.8803 45.7081 27.4516 45.5175L24.4103 44.1655C24.1811 44.0635 24.0097 43.8769 23.9277 43.6397C23.8457 43.4026 23.8652 43.1498 23.9825 42.928L24.3392 42.2542C24.4565 42.0324 24.6546 41.8742 24.8968 41.8086C24.9753 41.7874 25.0546 41.7768 25.1334 41.7768C25.2977 41.7768 25.459 41.8226 25.6032 41.912L28.4314 43.6667C28.8298 43.9142 28.9701 44.4325 28.7506 44.8471Z" fill="white"/>
<path d="M33.6695 41.2814C34.2554 41.2814 34.8468 41.1225 35.3741 40.7916L35.6341 40.6286C37.0625 39.7322 37.5574 37.8659 36.761 36.3795L35.1891 33.4459C34.7692 32.6623 34.0354 32.082 33.176 31.854C32.3164 31.626 31.3917 31.7664 30.6384 32.2388L29.9927 32.644C29.2396 33.1166 28.7109 33.8883 28.5423 34.7612C28.3738 35.6342 28.577 36.5474 29.0999 37.2664L31.0577 39.9579C31.6837 40.8181 32.6689 41.2814 33.6695 41.2814ZM30.9805 35.8989C30.8328 35.696 30.7778 35.4485 30.8253 35.202C30.8729 34.9558 31.0161 34.7465 31.2286 34.6132L31.8744 34.2081C32.0194 34.1171 32.1822 34.0704 32.348 34.0704C32.4252 34.0704 32.503 34.0805 32.5802 34.101C32.8226 34.1653 33.0215 34.3224 33.14 34.5436L34.712 37.4772C34.9335 37.8906 34.7958 38.4098 34.3986 38.659L34.1387 38.8221C33.7413 39.0713 33.2141 38.9695 32.9384 38.5902L30.9805 35.8989Z" fill="white"/>
<path d="M47.8493 21.2532C48.3374 22.5224 49.5611 23.3172 50.8619 23.3172C51.2683 23.3256 51.7023 23.2174 52.096 23.0852C53.7076 22.5892 54.6689 20.9145 54.2844 19.2726L53.5254 16.032C53.3225 15.1664 52.7639 14.4159 51.9928 13.9734C51.2217 13.5309 50.292 13.427 49.4423 13.6885L48.7137 13.9128C47.8639 14.1744 47.1534 14.7831 46.7647 15.5827C46.3758 16.3823 46.3359 17.3169 46.6551 18.1466L47.8493 21.2532ZM48.8554 16.5991C48.9651 16.3735 49.1576 16.2085 49.3974 16.1346L50.126 15.9103C50.6031 15.7505 51.1586 16.0683 51.2617 16.5621L52.0207 19.8026C52.1276 20.2592 51.8603 20.7249 51.412 20.8629L51.1188 20.9531C50.6704 21.091 50.1876 20.8562 50.0192 20.4185L48.8249 17.312C48.7348 17.0779 48.7456 16.8248 48.8554 16.5991Z" fill="white"/>
<path d="M58.9592 22.6795C59.2834 22.7589 59.6442 22.8356 59.9725 22.8289C61.3621 22.8289 62.6426 21.9199 63.0596 20.5403L64.0224 17.3545C64.2797 16.5034 64.171 15.5742 63.7246 14.8055C63.2781 14.0365 62.5248 13.4818 61.6581 13.2833L60.915 13.1132C60.0482 12.915 59.1287 13.0867 58.3922 13.5849C57.6557 14.083 57.1538 14.8724 57.0152 15.7506L56.4963 19.0382C56.2336 20.7036 57.3153 22.3032 58.9592 22.6795ZM58.7929 19.4004L59.3118 16.1129C59.379 15.6127 59.907 15.2553 60.3964 15.3794L61.1395 15.5494C61.6339 15.6507 61.9541 16.2021 61.797 16.6818L60.8341 19.8678C60.6985 20.3166 60.2337 20.5863 59.7769 20.4817L59.4778 20.4132C59.0207 20.3086 58.7199 19.8637 58.7929 19.4004Z" fill="white"/>
<path d="M69.666 22.7632C64.3227 22.7632 59.9754 27.1103 59.9754 32.4538V36.941C58.6263 36.2561 57.1246 35.8912 55.5907 35.8912C53.0022 35.8912 50.5686 36.8992 48.7383 38.7294C48.3357 39.1319 47.9707 39.5693 47.6457 40.0344C46.9448 39.9371 46.2326 39.8865 45.5125 39.8865C41.4306 39.8865 37.5932 41.4763 34.7074 44.3628C31.8206 47.2488 30.2308 51.0862 30.2308 55.1681C30.2308 56.4102 30.3788 57.6294 30.6649 58.8063C29.635 58.4425 28.5435 58.2517 27.4404 58.2517C24.8519 58.2517 22.4183 59.2597 20.5881 61.0898C18.7579 62.92 17.75 65.3536 17.75 67.9423V73.8375C17.75 74.4795 18.2705 75 18.9125 75H78.1939C78.8359 75 79.3564 74.4795 79.3564 73.8375V32.4538C79.3564 27.1103 75.0093 22.7632 69.666 22.7632ZM36.3514 46.0068C38.7981 43.5593 42.0516 42.2115 45.5125 42.2115C48.9734 42.2115 52.2274 43.5595 54.675 46.007C58.462 49.7941 59.5157 55.4826 57.3918 60.3463C53.3938 60.8342 50.1402 63.7644 49.1752 67.5968C44.6627 68.918 39.6925 67.6715 36.3514 64.3306C33.9039 61.8831 32.5559 58.6291 32.5559 55.1683C32.5557 51.7074 33.9037 48.4539 36.3514 46.0068ZM20.0749 67.9425C20.0749 65.9748 20.8411 64.1251 22.2321 62.734C23.6232 61.3429 25.4729 60.5768 27.4406 60.5768C29.0576 60.5768 30.5808 61.0877 31.8626 62.0553C32.5863 63.4859 33.5407 64.808 34.7074 65.9747C36.7779 68.0452 39.378 69.4696 42.2265 70.0939C43.3125 70.332 44.4147 70.4504 45.515 70.4504C46.6466 70.4504 47.7754 70.3223 48.8819 70.0729V72.6752H20.0749V67.9425ZM51.2067 72.6752V69.962C51.2067 65.9009 54.5107 62.5968 58.5719 62.5968C59.467 62.5968 60.3409 62.7557 61.1698 63.0691C61.9713 63.3717 62.7089 63.8094 63.3619 64.37C63.7064 64.6659 64.1919 64.7339 64.6043 64.5444C65.0171 64.3548 65.2815 63.9422 65.2815 63.4881V57.9501C65.2815 56.4758 65.715 55.0534 66.5352 53.837C66.894 53.3048 66.7536 52.5822 66.2212 52.2234C65.6888 51.8644 64.9664 52.005 64.6076 52.5374C63.5276 54.1392 62.9567 56.011 62.9567 57.9501V61.32C62.6438 61.161 62.3217 61.0188 61.9916 60.8942C61.3107 60.6368 60.607 60.4585 59.8883 60.3607C61.8882 54.8375 60.5498 48.594 56.3189 44.3631C54.5658 42.61 52.4614 41.3362 50.1648 40.6053C50.2364 40.5271 50.3073 40.4482 50.3823 40.3732C51.7734 38.9821 53.6232 38.216 55.5907 38.216C57.3474 38.216 59.0485 38.8456 60.3807 39.9888C60.7252 40.2846 61.2104 40.3526 61.6231 40.1629C62.0357 39.9733 62.3002 39.5607 62.3002 39.1066V32.4535C62.3002 28.392 65.6043 25.0878 69.6658 25.0878C73.7273 25.0878 77.0315 28.392 77.0315 32.4535V49.3107C76.7182 49.1515 76.3969 49.0072 76.0663 48.8823C74.9744 48.4694 73.8237 48.26 72.6468 48.26C71.2509 48.26 69.9028 48.5511 68.6397 49.1252C68.0553 49.3908 67.7969 50.0799 68.0625 50.6644C68.3282 51.2489 69.0173 51.5073 69.6018 51.2416C70.5606 50.8058 71.5851 50.5847 72.6468 50.5847C73.5419 50.5847 74.4158 50.7436 75.2447 51.057C75.885 51.2987 76.4834 51.628 77.0316 52.036V72.6751H51.2067V72.6752Z" fill="white"/>
</svg>
