<svg width="1920" height="1131" viewBox="0 0 1920 1131" fill="none" xmlns="http://www.w3.org/2000/svg">
<path fill-rule="evenodd" clip-rule="evenodd" d="M1920 0H3.50565e-05L0 731.413L3.50565e-05 894.835V1131L64 1093.95C65.5712 1093.06 67.1809 1092.14 68.8282 1091.2C134.285 1053.83 259.142 982.553 384 982.959C451.284 982.74 518.567 1003.34 585.851 1023.94C646.567 1042.52 707.284 1061.11 768 1064.4C865.032 1069.66 962.065 1037.45 1059.1 1005.23C1090.06 994.95 1121.03 984.668 1152 975.605C1280 938.144 1408 924.269 1536 938.56C1664 953.406 1792 997.804 1856 1020L1920 1042.2V894.835V731.413V0Z" fill="url(#paint0_linear)"/>
<defs>
<linearGradient id="paint0_linear" x1="6.79216e-06" y1="573.465" x2="1920" y2="573.465" gradientUnits="userSpaceOnUse">
<stop stop-color="#005B8E"/>
<stop offset="1" stop-color="#000349"/>
</linearGradient>
</defs>
</svg>
