<svg width="1920" height="401" viewBox="0 0 1920 401" fill="none" xmlns="http://www.w3.org/2000/svg">
<path d="M1920 311.889L1856 289.611C1792 267.333 1664 222.778 1536 207.88C1408 193.538 1280 207.462 1152 245.056C1024 282.65 896 341.129 768 334.167C640 327.205 512 252.018 384 252.435C256 252.018 128 327.205 64 363.824L0 401L-3.50565e-05 0.000167852L64 0.000162257C128 0.000156662 256 0.000145472 384 0.000134281C512 0.000123091 640 0.000111901 768 0.000100711C896 8.95209e-05 1024 7.83308e-05 1152 6.71407e-05C1280 5.59506e-05 1408 4.47605e-05 1536 3.35703e-05C1664 2.23802e-05 1792 1.11901e-05 1856 5.59506e-06L1920 0L1920 311.889Z" fill="url(#paint0_linear)"/>
<defs>
<linearGradient id="paint0_linear" x1="1920" y1="197.676" x2="-2.45673e-05" y2="197.677" gradientUnits="userSpaceOnUse">
<stop stop-color="#FF002E"/>
<stop offset="1" stop-color="#FF7A00"/>
</linearGradient>
</defs>
</svg>
