<svg width="242" height="61" viewBox="0 0 242 61" fill="none" xmlns="http://www.w3.org/2000/svg">
<path d="M65.54 39.3147C66.552 39.3147 67.41 39.2267 68.114 39.0507C68.818 38.8747 69.423 38.6327 69.929 38.3247L70.853 41.6247C70.325 41.9327 69.577 42.2077 68.609 42.4497C67.641 42.6917 66.464 42.8127 65.078 42.8127C63.516 42.8127 62.075 42.5707 60.755 42.0867C59.435 41.5807 58.291 40.8657 57.323 39.9417C56.377 38.9957 55.64 37.8627 55.112 36.5427C54.584 35.2007 54.32 33.6937 54.32 32.0217C54.32 30.3937 54.573 28.9197 55.079 27.5997C55.607 26.2797 56.333 25.1577 57.257 24.2337C58.203 23.2877 59.347 22.5617 60.689 22.0557C62.031 21.5497 63.527 21.2967 65.177 21.2967C66.585 21.2967 67.74 21.4287 68.642 21.6927C69.566 21.9567 70.314 22.2427 70.886 22.5507L69.863 25.8837C69.291 25.5757 68.653 25.3227 67.949 25.1247C67.267 24.9047 66.497 24.7947 65.639 24.7947C64.737 24.7947 63.89 24.9267 63.098 25.1907C62.306 25.4547 61.613 25.8837 61.019 26.4777C60.425 27.0497 59.952 27.7977 59.6 28.7217C59.27 29.6237 59.105 30.7237 59.105 32.0217C59.105 33.2757 59.27 34.3647 59.6 35.2887C59.93 36.1907 60.381 36.9387 60.953 37.5327C61.547 38.1267 62.229 38.5777 62.999 38.8857C63.791 39.1717 64.638 39.3147 65.54 39.3147ZM73.8003 42.4497V26.7087H77.1993L77.6943 29.5467C78.0683 28.7107 78.6623 27.9737 79.4763 27.3357C80.2903 26.6977 81.3133 26.3787 82.5453 26.3787C83.0513 26.3787 83.5023 26.4337 83.8983 26.5437C84.2943 26.6537 84.6243 26.7857 84.8883 26.9397L84.1623 30.4047C83.9203 30.2727 83.6123 30.1627 83.2383 30.0747C82.8643 29.9647 82.4243 29.9097 81.9183 29.9097C80.8403 29.9097 79.9383 30.2727 79.2123 30.9987C78.5083 31.7027 78.1563 32.8687 78.1563 34.4967V42.4497H73.8003ZM85.5542 26.7087H90.3392L93.1442 34.1997L94.2002 38.0277H94.3322L95.3552 34.1667L97.7972 26.7087H102.285L96.5102 43.0107C96.1802 43.9127 95.8062 44.7707 95.3882 45.5847C94.9922 46.4207 94.4972 47.1907 93.9032 47.8947C93.3312 48.5987 92.6492 49.2257 91.8572 49.7757C91.0652 50.3257 90.1302 50.7767 89.0522 51.1287L87.2372 47.7297C88.4692 47.2897 89.5032 46.6517 90.3392 45.8157C91.1752 44.9797 91.7472 43.9787 92.0552 42.8127L92.1872 42.3837L85.5542 26.7087ZM111.873 42.8127C111.301 42.8127 110.729 42.7357 110.157 42.5817C109.607 42.4497 109.145 42.2737 108.771 42.0537V50.0397H104.415V26.6427H107.748L108.21 28.3917C108.848 27.7757 109.574 27.2917 110.388 26.9397C111.202 26.5657 112.115 26.3787 113.127 26.3787C115.195 26.3787 116.823 27.0827 118.011 28.4907C119.221 29.8767 119.826 31.8017 119.826 34.2657C119.826 35.6517 119.617 36.8837 119.199 37.9617C118.781 39.0177 118.209 39.9087 117.483 40.6347C116.757 41.3607 115.91 41.9107 114.942 42.2847C113.974 42.6367 112.951 42.8127 111.873 42.8127ZM111.939 29.6787C111.213 29.6787 110.575 29.8547 110.025 30.2067C109.475 30.5367 109.057 30.8777 108.771 31.2297V38.7537C109.453 39.3037 110.3 39.5787 111.312 39.5787C111.796 39.5787 112.269 39.4907 112.731 39.3147C113.215 39.1167 113.644 38.8197 114.018 38.4237C114.414 38.0057 114.722 37.4667 114.942 36.8067C115.184 36.1467 115.305 35.3437 115.305 34.3977C115.305 33.7157 115.228 33.0887 115.074 32.5167C114.942 31.9447 114.733 31.4497 114.447 31.0317C114.161 30.6137 113.809 30.2837 113.391 30.0417C112.973 29.7997 112.489 29.6787 111.939 29.6787ZM132.319 29.8767H128.128V37.1367C128.128 37.8847 128.293 38.4017 128.623 38.6877C128.975 38.9517 129.437 39.0837 130.009 39.0837C130.449 39.0837 130.9 39.0397 131.362 38.9517C131.824 38.8637 132.198 38.7427 132.484 38.5887L133.144 41.6577C132.77 41.8337 132.209 42.0097 131.461 42.1857C130.713 42.3617 129.921 42.4497 129.085 42.4497C127.171 42.4497 125.807 42.0757 124.993 41.3277C124.179 40.5577 123.772 39.4137 123.772 37.8957V29.8767H121.33V26.7087H123.772V21.8577H128.128V26.7087H132.319V29.8767ZM150.826 34.4637C150.826 35.7617 150.617 36.9277 150.199 37.9617C149.781 38.9957 149.198 39.8757 148.45 40.6017C147.724 41.3057 146.866 41.8557 145.876 42.2517C144.886 42.6257 143.819 42.8127 142.675 42.8127C141.531 42.8127 140.464 42.6367 139.474 42.2847C138.506 41.9327 137.659 41.4157 136.933 40.7337C136.229 40.0517 135.668 39.2157 135.25 38.2257C134.854 37.2137 134.656 36.0697 134.656 34.7937C134.656 33.4517 134.865 32.2637 135.283 31.2297C135.701 30.1737 136.273 29.2937 136.999 28.5897C137.747 27.8637 138.616 27.3137 139.606 26.9397C140.596 26.5657 141.663 26.3787 142.807 26.3787C143.951 26.3787 145.007 26.5547 145.975 26.9067C146.965 27.2587 147.812 27.7757 148.516 28.4577C149.242 29.1177 149.803 29.9537 150.199 30.9657C150.617 31.9777 150.826 33.1437 150.826 34.4637ZM146.305 34.6287C146.305 33.7267 146.206 32.9567 146.008 32.3187C145.81 31.6807 145.546 31.1637 145.216 30.7677C144.886 30.3717 144.501 30.0857 144.061 29.9097C143.621 29.7117 143.17 29.6127 142.708 29.6127C142.246 29.6127 141.806 29.7007 141.388 29.8767C140.97 30.0307 140.596 30.3057 140.266 30.7017C139.936 31.0757 139.672 31.5817 139.474 32.2197C139.276 32.8577 139.177 33.6607 139.177 34.6287C139.177 35.4867 139.276 36.2347 139.474 36.8727C139.672 37.4887 139.936 37.9947 140.266 38.3907C140.618 38.7867 141.003 39.0837 141.421 39.2817C141.861 39.4797 142.312 39.5787 142.774 39.5787C143.236 39.5787 143.676 39.5017 144.094 39.3477C144.512 39.1717 144.886 38.8857 145.216 38.4897C145.546 38.0937 145.81 37.5877 146.008 36.9717C146.206 36.3337 146.305 35.5527 146.305 34.6287ZM154.245 42.4497V21.6597H158.766V29.9097H166.653V21.6597H171.174V42.4497H166.653V33.4737H158.766V42.4497H154.245ZM190.787 34.4637C190.787 35.7617 190.578 36.9277 190.16 37.9617C189.742 38.9957 189.159 39.8757 188.411 40.6017C187.685 41.3057 186.827 41.8557 185.837 42.2517C184.847 42.6257 183.78 42.8127 182.636 42.8127C181.492 42.8127 180.425 42.6367 179.435 42.2847C178.467 41.9327 177.62 41.4157 176.894 40.7337C176.19 40.0517 175.629 39.2157 175.211 38.2257C174.815 37.2137 174.617 36.0697 174.617 34.7937C174.617 33.4517 174.826 32.2637 175.244 31.2297C175.662 30.1737 176.234 29.2937 176.96 28.5897C177.708 27.8637 178.577 27.3137 179.567 26.9397C180.557 26.5657 181.624 26.3787 182.768 26.3787C183.912 26.3787 184.968 26.5547 185.936 26.9067C186.926 27.2587 187.773 27.7757 188.477 28.4577C189.203 29.1177 189.764 29.9537 190.16 30.9657C190.578 31.9777 190.787 33.1437 190.787 34.4637ZM186.266 34.6287C186.266 33.7267 186.167 32.9567 185.969 32.3187C185.771 31.6807 185.507 31.1637 185.177 30.7677C184.847 30.3717 184.462 30.0857 184.022 29.9097C183.582 29.7117 183.131 29.6127 182.669 29.6127C182.207 29.6127 181.767 29.7007 181.349 29.8767C180.931 30.0307 180.557 30.3057 180.227 30.7017C179.897 31.0757 179.633 31.5817 179.435 32.2197C179.237 32.8577 179.138 33.6607 179.138 34.6287C179.138 35.4867 179.237 36.2347 179.435 36.8727C179.633 37.4887 179.897 37.9947 180.227 38.3907C180.579 38.7867 180.964 39.0837 181.382 39.2817C181.822 39.4797 182.273 39.5787 182.735 39.5787C183.197 39.5787 183.637 39.5017 184.055 39.3477C184.473 39.1717 184.847 38.8857 185.177 38.4897C185.507 38.0937 185.771 37.5877 185.969 36.9717C186.167 36.3337 186.266 35.5527 186.266 34.6287ZM204.073 26.7087H208.462V42.4497H205.195L204.733 40.6677H204.601C204.359 40.9097 204.073 41.1627 203.743 41.4267C203.435 41.6687 203.061 41.8997 202.621 42.1197C202.203 42.3177 201.719 42.4827 201.169 42.6147C200.641 42.7467 200.047 42.8127 199.387 42.8127C197.693 42.8127 196.351 42.3397 195.361 41.3937C194.393 40.4477 193.909 39.0507 193.909 37.2027V26.7087H198.298V36.8397C198.298 37.7857 198.518 38.4677 198.958 38.8857C199.42 39.3037 200.003 39.5127 200.707 39.5127C201.499 39.5127 202.17 39.3477 202.72 39.0177C203.292 38.6877 203.743 38.3027 204.073 37.8627V26.7087ZM221.911 30.4707C220.613 29.8547 219.359 29.5467 218.149 29.5467C217.445 29.5467 216.895 29.6677 216.499 29.9097C216.125 30.1517 215.938 30.4817 215.938 30.8997C215.938 31.3177 216.103 31.6587 216.433 31.9227C216.785 32.1867 217.478 32.4727 218.512 32.7807L219.502 33.0777C220.866 33.4737 221.9 34.0457 222.604 34.7937C223.308 35.5417 223.66 36.5097 223.66 37.6977C223.66 39.2597 223.055 40.5027 221.845 41.4267C220.657 42.3507 219.04 42.8127 216.994 42.8127C214.904 42.8127 213.111 42.4387 211.615 41.6907L212.605 38.4567C213.243 38.7867 213.914 39.0617 214.618 39.2817C215.322 39.4797 216.037 39.5787 216.763 39.5787C217.643 39.5787 218.281 39.4467 218.677 39.1827C219.095 38.8967 219.304 38.5337 219.304 38.0937C219.304 37.6317 219.106 37.2797 218.71 37.0377C218.314 36.7737 217.566 36.4877 216.466 36.1797L215.443 35.8827C214.123 35.4427 213.155 34.8597 212.539 34.1337C211.923 33.4077 211.615 32.4397 211.615 31.2297C211.615 29.7997 212.154 28.6337 213.232 27.7317C214.31 26.8297 215.817 26.3787 217.753 26.3787C219.667 26.3787 221.361 26.7197 222.835 27.4017L221.911 30.4707ZM240.611 35.7177H230.15V35.8497C230.15 37.1037 230.59 38.0387 231.47 38.6547C232.35 39.2707 233.483 39.5787 234.869 39.5787C235.749 39.5787 236.519 39.4907 237.179 39.3147C237.861 39.1387 238.477 38.9297 239.027 38.6877L239.819 41.7567C239.225 42.0427 238.477 42.2847 237.575 42.4827C236.673 42.7027 235.606 42.8127 234.374 42.8127C233.186 42.8127 232.064 42.6587 231.008 42.3507C229.974 42.0207 229.061 41.5257 228.269 40.8657C227.499 40.2057 226.883 39.3697 226.421 38.3577C225.959 37.3457 225.728 36.1357 225.728 34.7277C225.728 33.4737 225.915 32.3407 226.289 31.3287C226.663 30.2947 227.191 29.4147 227.873 28.6887C228.577 27.9627 229.413 27.4017 230.381 27.0057C231.349 26.5877 232.427 26.3787 233.615 26.3787C235.749 26.3787 237.443 27.0277 238.697 28.3257C239.973 29.6237 240.611 31.4387 240.611 33.7707V35.7177ZM236.123 32.7147C236.123 32.2967 236.068 31.8897 235.958 31.4937C235.87 31.0977 235.716 30.7567 235.496 30.4707C235.276 30.1627 235.001 29.9207 234.671 29.7447C234.341 29.5687 233.934 29.4807 233.45 29.4807C232.57 29.4807 231.844 29.7777 231.272 30.3717C230.7 30.9657 230.359 31.7687 230.249 32.7807L236.123 32.7147Z" fill="white"/>
<path d="M3.44043 23.0491L24.5976 7.09984C25.3103 6.56257 26.2927 6.56257 27.0054 7.09984L48.1625 23.0491" stroke="url(#paint0_linear)" stroke-width="4" stroke-linecap="round"/>
<path d="M5.49658 52.7559C5.34022 52.7559 5.18393 52.6963 5.06463 52.577C4.82611 52.3384 4.82611 51.9517 5.06463 51.7131L10.0732 46.7046C10.3119 46.466 10.6986 46.466 10.9371 46.7046C11.1756 46.9431 11.1756 47.3299 10.9371 47.5684L5.92853 52.577C5.80915 52.6963 5.65279 52.7559 5.49658 52.7559Z" fill="#FF002E"/>
<path d="M10.1577 53.4166C10.0014 53.4166 9.84506 53.357 9.72576 53.2377C9.48725 52.9992 9.48725 52.6124 9.72576 52.3739L15.059 47.0407C15.2976 46.8022 15.6843 46.8022 15.9229 47.0407C16.1614 47.2792 16.1614 47.666 15.9229 47.9045L10.5897 53.2377C10.4704 53.357 10.314 53.4166 10.1577 53.4166Z" fill="#FF002E"/>
<path d="M4.73877 48.1822C4.58248 48.1822 4.42612 48.1226 4.30682 48.0033C4.0683 47.7648 4.0683 47.378 4.30682 47.1395L9.31533 42.1309C9.55393 41.8924 9.94063 41.8924 10.1792 42.1309C10.4177 42.3694 10.4177 42.7562 10.1792 42.9947L5.17072 48.0033C5.05142 48.1225 4.89506 48.1822 4.73877 48.1822Z" fill="#FF002E"/>
<path d="M25.7575 46.5467C33.8825 46.5467 40.4691 39.9601 40.4691 31.8351C40.4691 23.7101 33.8825 17.1235 25.7575 17.1235C17.6325 17.1235 11.0459 23.7101 11.0459 31.8351C11.0459 39.9601 17.6325 46.5467 25.7575 46.5467Z" fill="url(#paint1_linear)"/>
<path d="M34.0116 19.6561C35.6099 22.0099 36.5442 24.851 36.5442 27.9105C36.5442 36.0355 29.9576 42.6221 21.8325 42.6221C18.773 42.6221 15.9319 41.6879 13.5781 40.0895C16.2245 43.9865 20.6917 46.5467 25.7571 46.5467C33.8821 46.5467 40.4687 39.9601 40.4687 31.8351C40.4689 26.7696 37.9086 22.3024 34.0116 19.6561Z" fill="#FF002E"/>
<path d="M25.757 47.1575C17.3082 47.1575 10.4346 40.2839 10.4346 31.8351C10.4346 23.3862 17.3082 16.5127 25.757 16.5127C34.2058 16.5127 41.0794 23.3863 41.0794 31.8351C41.0794 40.284 34.2058 47.1575 25.757 47.1575ZM25.757 17.7343C17.9818 17.7343 11.6561 24.0599 11.6561 31.8351C11.6561 39.6103 17.9818 45.9359 25.757 45.9359C33.5323 45.9359 39.8578 39.6103 39.8578 31.8351C39.8578 24.0599 33.5322 17.7343 25.757 17.7343Z" fill="#FFECCF"/>
<path d="M16.4083 56.367L14.6156 54.5743C14.2857 54.2444 14.2857 53.7093 14.6156 53.3793L23.533 44.4621C24.0544 43.9408 24.7475 43.6537 25.4846 43.6537C26.222 43.6537 26.9152 43.9408 27.4366 44.4624L30.8574 47.8834L40.9991 37.7416L43.9867 40.7291L32.8092 51.9066C31.7329 52.9828 29.9819 52.9825 28.9058 51.9066L25.4847 48.4855L17.6033 56.367C17.2733 56.6969 16.7383 56.6969 16.4083 56.367Z" fill="#00B2FF"/>
<path d="M32.8092 50.0451C31.7328 51.1213 29.9818 51.121 28.9057 50.0451L25.4846 46.624L17.6032 54.5055C17.2732 54.8355 16.7382 54.8355 16.4082 54.5055L14.9489 53.0462L14.6156 53.3795C14.2857 53.7095 14.2857 54.2445 14.6156 54.5745L16.4083 56.3671C16.7383 56.6971 17.2733 56.6971 17.6033 56.3671L25.4847 48.4856L28.9058 51.9067C29.9819 52.9827 31.7329 52.9829 32.8092 51.9067L43.9867 40.7293L43.0559 39.7985L32.8092 50.0451Z" fill="#585EF9"/>
<path d="M44.3603 47.9176H41.8253C41.3586 47.9176 40.9804 47.5393 40.9804 47.0726V41.5489C40.9804 41.0822 40.6021 40.7039 40.1354 40.7039H34.6116C34.1449 40.7039 33.7666 40.3256 33.7666 39.859V37.324C33.7666 36.8573 34.1449 36.479 34.6116 36.479H44.3603C44.827 36.479 45.2053 36.8573 45.2053 37.324V47.0726C45.2053 47.5393 44.8269 47.9176 44.3603 47.9176Z" fill="#00B2FF"/>
<path d="M44.3604 36.479H44.0266V45.8938C44.0266 46.3605 43.6483 46.7388 43.1816 46.7388H40.9805V47.0726C40.9805 47.5393 41.3588 47.9176 41.8254 47.9176H44.3604C44.8271 47.9176 45.2055 47.5393 45.2055 47.0726V37.324C45.2055 36.8573 44.8271 36.479 44.3604 36.479Z" fill="#585EF9"/>
<path fill-rule="evenodd" clip-rule="evenodd" d="M23.5206 26.2517H24.0935V27.9704H23.5206V26.2517ZM25.9396 28.2093C27.102 28.2093 28.0203 28.457 28.6944 28.9522C29.3686 29.4475 29.7057 30.1444 29.7057 31.0428C29.7057 31.3768 29.6418 31.6763 29.5139 31.9412C29.3977 32.2062 29.2408 32.4365 29.0432 32.6323C28.8572 32.8166 28.6421 32.9721 28.398 33.0988C28.1656 33.2255 27.9273 33.3177 27.6832 33.3753C28.0086 33.4329 28.3109 33.5308 28.5898 33.669C28.8804 33.7957 29.1303 33.9685 29.3396 34.1873C29.5604 34.4062 29.729 34.6711 29.8452 34.9821C29.9731 35.2816 30.037 35.6271 30.037 36.0187C30.037 36.4679 29.9382 36.8826 29.7406 37.2627C29.543 37.6313 29.2582 37.9538 28.8862 38.2302C28.5259 38.5067 28.0842 38.7198 27.5611 38.8695C27.0497 39.0192 26.4801 39.0941 25.8524 39.0941H25.8122V40.5738H25.2393V39.0941H24.0935V40.5738H23.5206V39.0941H22.0166V28.2093H25.9396ZM24.4053 32.5632H25.5386C26.0617 32.5632 26.4743 32.4538 26.7765 32.235C27.0904 32.0046 27.2473 31.6648 27.2473 31.2156C27.2473 30.8124 27.102 30.513 26.8114 30.3172C26.5324 30.1098 26.1256 30.0062 25.5909 30.0062H24.4053V32.5632ZM24.4053 37.2973H25.5386C26.1314 37.2973 26.6196 37.1878 27.0032 36.969C27.3868 36.7386 27.5786 36.347 27.5786 35.7941C27.5786 35.2758 27.3751 34.9072 26.9683 34.6884C26.5615 34.458 26.0617 34.3428 25.4689 34.3428H24.4053V37.2973ZM25.2393 26.2517H25.8122V27.9704H25.2393V26.2517Z" fill="white"/>
<path d="M43.8047 11.9259C43.8047 11.9259 43.8047 5.96296 49.7677 5.96296C49.7677 5.96296 43.8047 5.96296 43.8047 7.62939e-06C43.8047 7.62939e-06 43.8047 5.96296 37.8418 5.96296C37.8418 5.96296 43.8047 5.96296 43.8047 11.9259Z" fill="url(#paint2_linear)"/>
<path d="M3.78418 13.7606C3.78418 13.7606 3.78418 9.97644 7.56836 9.97644C7.56836 9.97644 3.78418 9.97644 3.78418 6.19226C3.78418 6.19226 3.78418 9.97644 0 9.97644C0 9.97644 3.78418 9.97644 3.78418 13.7606Z" fill="url(#paint3_linear)"/>
<defs>
<linearGradient id="paint0_linear" x1="3.44043" y1="14.7394" x2="48.1625" y2="14.7394" gradientUnits="userSpaceOnUse">
<stop stop-color="#FF002E"/>
<stop offset="1" stop-color="#FF7A00"/>
</linearGradient>
<linearGradient id="paint1_linear" x1="11.0459" y1="32.0423" x2="40.4691" y2="32.0423" gradientUnits="userSpaceOnUse">
<stop stop-color="#FF002E"/>
<stop offset="1" stop-color="#FF7A00"/>
</linearGradient>
<linearGradient id="paint2_linear" x1="37.8418" y1="5.87897" x2="49.7677" y2="5.87897" gradientUnits="userSpaceOnUse">
<stop stop-color="#FF002E"/>
<stop offset="1" stop-color="#FF7A00"/>
</linearGradient>
<linearGradient id="paint3_linear" x1="2.67737e-08" y1="9.92314" x2="7.56836" y2="9.92314" gradientUnits="userSpaceOnUse">
<stop stop-color="#FF002E"/>
<stop offset="1" stop-color="#FF7A00"/>
</linearGradient>
</defs>
</svg>
