<svg width="242" height="61" viewBox="0 0 242 61" fill="none" xmlns="http://www.w3.org/2000/svg">
<path d="M65.54 39.3149C66.552 39.3149 67.41 39.2269 68.114 39.0509C68.818 38.8749 69.423 38.6329 69.929 38.3249L70.853 41.6249C70.325 41.9329 69.577 42.2079 68.609 42.4499C67.641 42.6919 66.464 42.8129 65.078 42.8129C63.516 42.8129 62.075 42.5709 60.755 42.0869C59.435 41.5809 58.291 40.8659 57.323 39.9419C56.377 38.9959 55.64 37.8629 55.112 36.5429C54.584 35.2009 54.32 33.6939 54.32 32.0219C54.32 30.3939 54.573 28.9199 55.079 27.5999C55.607 26.2799 56.333 25.1579 57.257 24.2339C58.203 23.2879 59.347 22.5619 60.689 22.0559C62.031 21.5499 63.527 21.2969 65.177 21.2969C66.585 21.2969 67.74 21.4289 68.642 21.6929C69.566 21.9569 70.314 22.2429 70.886 22.5509L69.863 25.8839C69.291 25.5759 68.653 25.3229 67.949 25.1249C67.267 24.9049 66.497 24.7949 65.639 24.7949C64.737 24.7949 63.89 24.9269 63.098 25.1909C62.306 25.4549 61.613 25.8839 61.019 26.4779C60.425 27.0499 59.952 27.7979 59.6 28.7219C59.27 29.6239 59.105 30.7239 59.105 32.0219C59.105 33.2759 59.27 34.3649 59.6 35.2889C59.93 36.1909 60.381 36.9389 60.953 37.5329C61.547 38.1269 62.229 38.5779 62.999 38.8859C63.791 39.1719 64.638 39.3149 65.54 39.3149ZM73.8003 42.4499V26.7089H77.1993L77.6943 29.5469C78.0683 28.7109 78.6623 27.9739 79.4763 27.3359C80.2903 26.6979 81.3133 26.3789 82.5453 26.3789C83.0513 26.3789 83.5023 26.4339 83.8983 26.5439C84.2943 26.6539 84.6243 26.7859 84.8883 26.9399L84.1623 30.4049C83.9203 30.2729 83.6123 30.1629 83.2383 30.0749C82.8643 29.9649 82.4243 29.9099 81.9183 29.9099C80.8403 29.9099 79.9383 30.2729 79.2123 30.9989C78.5083 31.7029 78.1563 32.8689 78.1563 34.4969V42.4499H73.8003ZM85.5542 26.7089H90.3392L93.1442 34.1999L94.2002 38.0279H94.3322L95.3552 34.1669L97.7972 26.7089H102.285L96.5102 43.0109C96.1802 43.9129 95.8062 44.7709 95.3882 45.5849C94.9922 46.4209 94.4972 47.1909 93.9032 47.8949C93.3312 48.5989 92.6492 49.2259 91.8572 49.7759C91.0652 50.3259 90.1302 50.7769 89.0522 51.1289L87.2372 47.7299C88.4692 47.2899 89.5032 46.6519 90.3392 45.8159C91.1752 44.9799 91.7472 43.9789 92.0552 42.8129L92.1872 42.3839L85.5542 26.7089ZM111.873 42.8129C111.301 42.8129 110.729 42.7359 110.157 42.5819C109.607 42.4499 109.145 42.2739 108.771 42.0539V50.0399H104.415V26.6429H107.748L108.21 28.3919C108.848 27.7759 109.574 27.2919 110.388 26.9399C111.202 26.5659 112.115 26.3789 113.127 26.3789C115.195 26.3789 116.823 27.0829 118.011 28.4909C119.221 29.8769 119.826 31.8019 119.826 34.2659C119.826 35.6519 119.617 36.8839 119.199 37.9619C118.781 39.0179 118.209 39.9089 117.483 40.6349C116.757 41.3609 115.91 41.9109 114.942 42.2849C113.974 42.6369 112.951 42.8129 111.873 42.8129ZM111.939 29.6789C111.213 29.6789 110.575 29.8549 110.025 30.2069C109.475 30.5369 109.057 30.8779 108.771 31.2299V38.7539C109.453 39.3039 110.3 39.5789 111.312 39.5789C111.796 39.5789 112.269 39.4909 112.731 39.3149C113.215 39.1169 113.644 38.8199 114.018 38.4239C114.414 38.0059 114.722 37.4669 114.942 36.8069C115.184 36.1469 115.305 35.3439 115.305 34.3979C115.305 33.7159 115.228 33.0889 115.074 32.5169C114.942 31.9449 114.733 31.4499 114.447 31.0319C114.161 30.6139 113.809 30.2839 113.391 30.0419C112.973 29.7999 112.489 29.6789 111.939 29.6789ZM132.319 29.8769H128.128V37.1369C128.128 37.8849 128.293 38.4019 128.623 38.6879C128.975 38.9519 129.437 39.0839 130.009 39.0839C130.449 39.0839 130.9 39.0399 131.362 38.9519C131.824 38.8639 132.198 38.7429 132.484 38.5889L133.144 41.6579C132.77 41.8339 132.209 42.0099 131.461 42.1859C130.713 42.3619 129.921 42.4499 129.085 42.4499C127.171 42.4499 125.807 42.0759 124.993 41.3279C124.179 40.5579 123.772 39.4139 123.772 37.8959V29.8769H121.33V26.7089H123.772V21.8579H128.128V26.7089H132.319V29.8769ZM150.826 34.4639C150.826 35.7619 150.617 36.9279 150.199 37.9619C149.781 38.9959 149.198 39.8759 148.45 40.6019C147.724 41.3059 146.866 41.8559 145.876 42.2519C144.886 42.6259 143.819 42.8129 142.675 42.8129C141.531 42.8129 140.464 42.6369 139.474 42.2849C138.506 41.9329 137.659 41.4159 136.933 40.7339C136.229 40.0519 135.668 39.2159 135.25 38.2259C134.854 37.2139 134.656 36.0699 134.656 34.7939C134.656 33.4519 134.865 32.2639 135.283 31.2299C135.701 30.1739 136.273 29.2939 136.999 28.5899C137.747 27.8639 138.616 27.3139 139.606 26.9399C140.596 26.5659 141.663 26.3789 142.807 26.3789C143.951 26.3789 145.007 26.5549 145.975 26.9069C146.965 27.2589 147.812 27.7759 148.516 28.4579C149.242 29.1179 149.803 29.9539 150.199 30.9659C150.617 31.9779 150.826 33.1439 150.826 34.4639ZM146.305 34.6289C146.305 33.7269 146.206 32.9569 146.008 32.3189C145.81 31.6809 145.546 31.1639 145.216 30.7679C144.886 30.3719 144.501 30.0859 144.061 29.9099C143.621 29.7119 143.17 29.6129 142.708 29.6129C142.246 29.6129 141.806 29.7009 141.388 29.8769C140.97 30.0309 140.596 30.3059 140.266 30.7019C139.936 31.0759 139.672 31.5819 139.474 32.2199C139.276 32.8579 139.177 33.6609 139.177 34.6289C139.177 35.4869 139.276 36.2349 139.474 36.8729C139.672 37.4889 139.936 37.9949 140.266 38.3909C140.618 38.7869 141.003 39.0839 141.421 39.2819C141.861 39.4799 142.312 39.5789 142.774 39.5789C143.236 39.5789 143.676 39.5019 144.094 39.3479C144.512 39.1719 144.886 38.8859 145.216 38.4899C145.546 38.0939 145.81 37.5879 146.008 36.9719C146.206 36.3339 146.305 35.5529 146.305 34.6289ZM154.245 42.4499V21.6599H158.766V29.9099H166.653V21.6599H171.174V42.4499H166.653V33.4739H158.766V42.4499H154.245ZM190.787 34.4639C190.787 35.7619 190.578 36.9279 190.16 37.9619C189.742 38.9959 189.159 39.8759 188.411 40.6019C187.685 41.3059 186.827 41.8559 185.837 42.2519C184.847 42.6259 183.78 42.8129 182.636 42.8129C181.492 42.8129 180.425 42.6369 179.435 42.2849C178.467 41.9329 177.62 41.4159 176.894 40.7339C176.19 40.0519 175.629 39.2159 175.211 38.2259C174.815 37.2139 174.617 36.0699 174.617 34.7939C174.617 33.4519 174.826 32.2639 175.244 31.2299C175.662 30.1739 176.234 29.2939 176.96 28.5899C177.708 27.8639 178.577 27.3139 179.567 26.9399C180.557 26.5659 181.624 26.3789 182.768 26.3789C183.912 26.3789 184.968 26.5549 185.936 26.9069C186.926 27.2589 187.773 27.7759 188.477 28.4579C189.203 29.1179 189.764 29.9539 190.16 30.9659C190.578 31.9779 190.787 33.1439 190.787 34.4639ZM186.266 34.6289C186.266 33.7269 186.167 32.9569 185.969 32.3189C185.771 31.6809 185.507 31.1639 185.177 30.7679C184.847 30.3719 184.462 30.0859 184.022 29.9099C183.582 29.7119 183.131 29.6129 182.669 29.6129C182.207 29.6129 181.767 29.7009 181.349 29.8769C180.931 30.0309 180.557 30.3059 180.227 30.7019C179.897 31.0759 179.633 31.5819 179.435 32.2199C179.237 32.8579 179.138 33.6609 179.138 34.6289C179.138 35.4869 179.237 36.2349 179.435 36.8729C179.633 37.4889 179.897 37.9949 180.227 38.3909C180.579 38.7869 180.964 39.0839 181.382 39.2819C181.822 39.4799 182.273 39.5789 182.735 39.5789C183.197 39.5789 183.637 39.5019 184.055 39.3479C184.473 39.1719 184.847 38.8859 185.177 38.4899C185.507 38.0939 185.771 37.5879 185.969 36.9719C186.167 36.3339 186.266 35.5529 186.266 34.6289ZM204.073 26.7089H208.462V42.4499H205.195L204.733 40.6679H204.601C204.359 40.9099 204.073 41.1629 203.743 41.4269C203.435 41.6689 203.061 41.8999 202.621 42.1199C202.203 42.3179 201.719 42.4829 201.169 42.6149C200.641 42.7469 200.047 42.8129 199.387 42.8129C197.693 42.8129 196.351 42.3399 195.361 41.3939C194.393 40.4479 193.909 39.0509 193.909 37.2029V26.7089H198.298V36.8399C198.298 37.7859 198.518 38.4679 198.958 38.8859C199.42 39.3039 200.003 39.5129 200.707 39.5129C201.499 39.5129 202.17 39.3479 202.72 39.0179C203.292 38.6879 203.743 38.3029 204.073 37.8629V26.7089ZM221.911 30.4709C220.613 29.8549 219.359 29.5469 218.149 29.5469C217.445 29.5469 216.895 29.6679 216.499 29.9099C216.125 30.1519 215.938 30.4819 215.938 30.8999C215.938 31.3179 216.103 31.6589 216.433 31.9229C216.785 32.1869 217.478 32.4729 218.512 32.7809L219.502 33.0779C220.866 33.4739 221.9 34.0459 222.604 34.7939C223.308 35.5419 223.66 36.5099 223.66 37.6979C223.66 39.2599 223.055 40.5029 221.845 41.4269C220.657 42.3509 219.04 42.8129 216.994 42.8129C214.904 42.8129 213.111 42.4389 211.615 41.6909L212.605 38.4569C213.243 38.7869 213.914 39.0619 214.618 39.2819C215.322 39.4799 216.037 39.5789 216.763 39.5789C217.643 39.5789 218.281 39.4469 218.677 39.1829C219.095 38.8969 219.304 38.5339 219.304 38.0939C219.304 37.6319 219.106 37.2799 218.71 37.0379C218.314 36.7739 217.566 36.4879 216.466 36.1799L215.443 35.8829C214.123 35.4429 213.155 34.8599 212.539 34.1339C211.923 33.4079 211.615 32.4399 211.615 31.2299C211.615 29.7999 212.154 28.6339 213.232 27.7319C214.31 26.8299 215.817 26.3789 217.753 26.3789C219.667 26.3789 221.361 26.7199 222.835 27.4019L221.911 30.4709ZM240.611 35.7179H230.15V35.8499C230.15 37.1039 230.59 38.0389 231.47 38.6549C232.35 39.2709 233.483 39.5789 234.869 39.5789C235.749 39.5789 236.519 39.4909 237.179 39.3149C237.861 39.1389 238.477 38.9299 239.027 38.6879L239.819 41.7569C239.225 42.0429 238.477 42.2849 237.575 42.4829C236.673 42.7029 235.606 42.8129 234.374 42.8129C233.186 42.8129 232.064 42.6589 231.008 42.3509C229.974 42.0209 229.061 41.5259 228.269 40.8659C227.499 40.2059 226.883 39.3699 226.421 38.3579C225.959 37.3459 225.728 36.1359 225.728 34.7279C225.728 33.4739 225.915 32.3409 226.289 31.3289C226.663 30.2949 227.191 29.4149 227.873 28.6889C228.577 27.9629 229.413 27.4019 230.381 27.0059C231.349 26.5879 232.427 26.3789 233.615 26.3789C235.749 26.3789 237.443 27.0279 238.697 28.3259C239.973 29.6239 240.611 31.4389 240.611 33.7709V35.7179ZM236.123 32.7149C236.123 32.2969 236.068 31.8899 235.958 31.4939C235.87 31.0979 235.716 30.7569 235.496 30.4709C235.276 30.1629 235.001 29.9209 234.671 29.7449C234.341 29.5689 233.934 29.4809 233.45 29.4809C232.57 29.4809 231.844 29.7779 231.272 30.3719C230.7 30.9659 230.359 31.7689 230.249 32.7809L236.123 32.7149Z" fill="#131920"/>
<path d="M3.44141 23.0492L24.5985 7.09996C25.3112 6.56269 26.2937 6.56269 27.0064 7.09996L48.1635 23.0492" stroke="url(#paint0_linear)" stroke-width="4" stroke-linecap="round"/>
<path d="M5.49756 52.756C5.34119 52.756 5.18491 52.6964 5.06561 52.5771C4.82709 52.3386 4.82709 51.9518 5.06561 51.7133L10.0742 46.7047C10.3129 46.4661 10.6996 46.4662 10.9381 46.7047C11.1766 46.9432 11.1766 47.33 10.9381 47.5685L5.92951 52.5771C5.81013 52.6964 5.65376 52.756 5.49756 52.756Z" fill="#FF002E"/>
<path d="M10.1577 53.4167C10.0014 53.4167 9.84506 53.3571 9.72576 53.2378C9.48725 52.9993 9.48725 52.6125 9.72576 52.374L15.059 47.0408C15.2976 46.8023 15.6843 46.8023 15.9229 47.0408C16.1614 47.2793 16.1614 47.6661 15.9229 47.9046L10.5897 53.2378C10.4704 53.3571 10.314 53.4167 10.1577 53.4167Z" fill="#FF002E"/>
<path d="M4.73975 48.1824C4.58346 48.1824 4.4271 48.1228 4.3078 48.0035C4.06928 47.765 4.06928 47.3782 4.3078 47.1397L9.31631 42.1311C9.5549 41.8926 9.94161 41.8926 10.1802 42.1311C10.4187 42.3696 10.4187 42.7564 10.1802 42.9949L5.1717 48.0035C5.0524 48.1227 4.89603 48.1824 4.73975 48.1824Z" fill="#FF002E"/>
<path d="M25.7585 46.5469C33.8835 46.5469 40.4701 39.9603 40.4701 31.8353C40.4701 23.7103 33.8835 17.1237 25.7585 17.1237C17.6335 17.1237 11.0469 23.7103 11.0469 31.8353C11.0469 39.9603 17.6335 46.5469 25.7585 46.5469Z" fill="url(#paint1_linear)"/>
<path d="M34.0116 19.6563C35.6099 22.0101 36.5442 24.8512 36.5442 27.9107C36.5442 36.0357 29.9576 42.6223 21.8325 42.6223C18.773 42.6223 15.9319 41.688 13.5781 40.0897C16.2245 43.9867 20.6917 46.5469 25.7571 46.5469C33.8821 46.5469 40.4687 39.9603 40.4687 31.8353C40.4689 26.7698 37.9086 22.3026 34.0116 19.6563Z" fill="#FF002E"/>
<path d="M25.76 47.1577C17.3111 47.1577 10.4375 40.2841 10.4375 31.8353C10.4375 23.3864 17.3111 16.5129 25.76 16.5129C34.2087 16.5129 41.0823 23.3865 41.0823 31.8353C41.0823 40.2842 34.2087 47.1577 25.76 47.1577ZM25.76 17.7344C17.9847 17.7344 11.6591 24.0601 11.6591 31.8353C11.6591 39.6104 17.9847 45.9361 25.76 45.9361C33.5352 45.9361 39.8608 39.6104 39.8608 31.8353C39.8608 24.0601 33.5351 17.7344 25.76 17.7344Z" fill="#FFECCF"/>
<path d="M16.4112 56.3671L14.6186 54.5745C14.2886 54.2445 14.2886 53.7095 14.6186 53.3795L23.5359 44.4623C24.0573 43.9409 24.7504 43.6539 25.4875 43.6539C26.2249 43.6539 26.9182 43.941 27.4395 44.4626L30.8603 47.8835L41.002 37.7418L43.9896 40.7293L32.8122 51.9068C31.7358 52.9829 29.9848 52.9827 28.9087 51.9068L25.4876 48.4856L17.6062 56.3671C17.2762 56.6971 16.7412 56.6971 16.4112 56.3671Z" fill="#00B2FF"/>
<path d="M32.8121 50.0452C31.7357 51.1214 29.9848 51.1212 28.9086 50.0452L25.4875 46.6241L17.6061 54.5056C17.2761 54.8356 16.7411 54.8356 16.4111 54.5056L14.9518 53.0463L14.6186 53.3796C14.2886 53.7096 14.2886 54.2446 14.6186 54.5746L16.4112 56.3672C16.7412 56.6972 17.2762 56.6972 17.6062 56.3672L25.4876 48.4857L28.9087 51.9068C29.9848 52.9828 31.7358 52.983 32.8122 51.9068L43.9896 40.7294L43.0588 39.7986L32.8121 50.0452Z" fill="#585EF9"/>
<path d="M44.3593 47.9178H41.8243C41.3577 47.9178 40.9794 47.5395 40.9794 47.0728V41.5491C40.9794 41.0824 40.6011 40.7041 40.1344 40.7041H34.6106C34.1439 40.7041 33.7656 40.3258 33.7656 39.8591V37.3242C33.7656 36.8575 34.1439 36.4792 34.6106 36.4792H44.3593C44.826 36.4792 45.2043 36.8575 45.2043 37.3242V47.0728C45.2043 47.5395 44.8259 47.9178 44.3593 47.9178Z" fill="#00B2FF"/>
<path d="M44.3604 36.4792H44.0266V45.894C44.0266 46.3607 43.6483 46.739 43.1816 46.739H40.9805V47.0728C40.9805 47.5395 41.3588 47.9178 41.8254 47.9178H44.3604C44.8271 47.9178 45.2055 47.5395 45.2055 47.0728V37.3242C45.2055 36.8575 44.8271 36.4792 44.3604 36.4792Z" fill="#585EF9"/>
<path fill-rule="evenodd" clip-rule="evenodd" d="M23.5235 26.2519H24.0964V27.9705H23.5235V26.2519ZM25.9425 28.2095C27.1049 28.2095 28.0232 28.4571 28.6974 28.9524C29.3715 29.4477 29.7086 30.1446 29.7086 31.043C29.7086 31.377 29.6447 31.6765 29.5168 31.9414C29.4006 32.2063 29.2437 32.4367 29.0461 32.6325C28.8601 32.8168 28.6451 32.9723 28.401 33.099C28.1685 33.2257 27.9302 33.3179 27.6861 33.3755C28.0116 33.433 28.3138 33.531 28.5928 33.6692C28.8833 33.7959 29.1333 33.9686 29.3425 34.1875C29.5633 34.4063 29.7319 34.6713 29.8481 34.9823C29.976 35.2817 30.0399 35.6273 30.0399 36.0189C30.0399 36.4681 29.9411 36.8828 29.7435 37.2629C29.5459 37.6315 29.2611 37.954 28.8892 38.2304C28.5288 38.5069 28.0871 38.7199 27.5641 38.8697C27.0526 39.0194 26.483 39.0943 25.8554 39.0943H25.8151V40.574H25.2422V39.0943H24.0964V40.574H23.5235V39.0943H22.0195V28.2095H25.9425ZM24.4082 32.5634H25.5415C26.0646 32.5634 26.4772 32.454 26.7795 32.2351C27.0933 32.0048 27.2502 31.665 27.2502 31.2158C27.2502 30.8126 27.1049 30.5132 26.8143 30.3173C26.5354 30.11 26.1285 30.0063 25.5938 30.0063H24.4082V32.5634ZM24.4082 37.2974H25.5415C26.1343 37.2974 26.6225 37.188 27.0061 36.9692C27.3897 36.7388 27.5815 36.3472 27.5815 35.7943C27.5815 35.276 27.3781 34.9074 26.9712 34.6885C26.5644 34.4582 26.0646 34.343 25.4718 34.343H24.4082V37.2974ZM25.2422 26.2519H25.8151V27.9705H25.2422V26.2519Z" fill="white"/>
<path d="M43.8028 11.9261C43.8028 11.9261 43.8028 5.96314 49.7657 5.96314C49.7657 5.96314 43.8028 5.96314 43.8028 0.000190735C43.8028 0.000190735 43.8028 5.96314 37.8398 5.96314C37.8398 5.96314 43.8028 5.96314 43.8028 11.9261Z" fill="url(#paint2_linear)"/>
<path d="M3.78418 13.7608C3.78418 13.7608 3.78418 9.97662 7.56836 9.97662C7.56836 9.97662 3.78418 9.97662 3.78418 6.19244C3.78418 6.19244 3.78418 9.97662 0 9.97662C0 9.97662 3.78418 9.97662 3.78418 13.7608Z" fill="url(#paint3_linear)"/>
<defs>
<linearGradient id="paint0_linear" x1="3.44141" y1="14.7395" x2="48.1635" y2="14.7395" gradientUnits="userSpaceOnUse">
<stop stop-color="#FF002E"/>
<stop offset="1" stop-color="#FF7A00"/>
</linearGradient>
<linearGradient id="paint1_linear" x1="11.0469" y1="32.0425" x2="40.4701" y2="32.0425" gradientUnits="userSpaceOnUse">
<stop stop-color="#FF002E"/>
<stop offset="1" stop-color="#FF7A00"/>
</linearGradient>
<linearGradient id="paint2_linear" x1="37.8398" y1="5.87915" x2="49.7657" y2="5.87915" gradientUnits="userSpaceOnUse">
<stop stop-color="#FF002E"/>
<stop offset="1" stop-color="#FF7A00"/>
</linearGradient>
<linearGradient id="paint3_linear" x1="2.67737e-08" y1="9.92333" x2="7.56836" y2="9.92333" gradientUnits="userSpaceOnUse">
<stop stop-color="#FF002E"/>
<stop offset="1" stop-color="#FF7A00"/>
</linearGradient>
</defs>
</svg>
